<?xml version="1.0" encoding="UTF-8"?>
<svg version="1.1" xmlns="http://www.w3.org/2000/svg" width="329" height="365">
<path d="M0 0 C108.57 0 217.14 0 329 0 C329 120.45 329 240.9 329 365 C220.43 365 111.86 365 0 365 C0 244.55 0 124.1 0 0 Z " fill="#FEFDFD" transform="translate(0,0)"/>
<path d="M0 0 C1.66015625 1.828125 1.66015625 1.828125 3.0625 4.25 C5.10537449 7.60200337 7.03293908 10.37529227 10 13 C10.33 12.34 10.66 11.68 11 11 C22.11388268 3.31253174 36.35746397 -0.09291994 49.75 -0.1875 C51.13445312 -0.20876953 51.13445312 -0.20876953 52.546875 -0.23046875 C55 0 55 0 58 2 C59.08193384 6.33960301 59.18306789 10.69112669 59.31640625 15.1484375 C59.33718735 15.80582916 59.35796844 16.46322083 59.37937927 17.14053345 C59.44420753 19.21859362 59.50344564 21.29676856 59.5625 23.375 C59.60574888 24.79298011 59.64936509 26.21094907 59.69335938 27.62890625 C59.80050355 31.0858222 59.90006973 34.54283804 60 38 C60.33 33.71 60.66 29.42 61 25 C73.58067801 24.1171454 85.50452505 28.22581221 96 35 C96.75925781 35.43183594 97.51851562 35.86367187 98.30078125 36.30859375 C100 38 100 38 100.4609375 40.8828125 C99.92165633 44.52981568 98.92882267 46.02481622 96.625 48.875 C92.44568262 54.25903165 88.9158417 59.88245946 85.50244141 65.78076172 C82.49498491 70.79075303 82.49498491 70.79075303 80.02832031 71.83349609 C78 72 78 72 75.25 69.875 C74.47462891 69.17697266 74.47462891 69.17697266 73.68359375 68.46484375 C59.91507729 56.48527606 41.42156284 54.97380917 24 56 C21.26332937 56.37882314 18.67413481 56.8541044 16.0078125 57.5625 C13.63308052 58.07995133 11.42297585 58.0675394 9 58 C9 58.66 9 59.32 9 60 C7.35 60.66 5.7 61.32 4 62 C4 62.66 4 63.32 4 64 C5.65071396 65.02611949 7.31970006 66.02308143 9 67 C10.8125 68.6875 10.8125 68.6875 12 70 C11.67 70.66 11.34 71.32 11 72 C10.01 72 9.02 72 8 72 C8 72.99 8 73.98 8 75 C8.55171875 74.67257813 9.1034375 74.34515625 9.671875 74.0078125 C12.38780923 72.83212285 14.30551759 72.79751362 17.25 72.875 C18.14203125 72.89304687 19.0340625 72.91109375 19.953125 72.9296875 C20.62859375 72.95289062 21.3040625 72.97609375 22 73 C25.28826796 78.26122874 25.15398834 81.13389261 24 87 C23.505 88.485 23.505 88.485 23 90 C28.61 90 34.22 90 40 90 C40 90.99 40 91.98 40 93 C34.72 93 29.44 93 24 93 C23.67 94.98 23.34 96.96 23 99 C22.34 99 21.68 99 21 99 C21 101.31 21 103.62 21 106 C22.093125 105.95875 23.18625 105.9175 24.3125 105.875 C29.66203382 105.85579162 34.77842235 106.92496931 40 108 C39.67 110.97 39.34 113.94 39 117 C38.34 117 37.68 117 37 117 C36.67 115.02 36.34 113.04 36 111 C34.73542969 111.11859375 33.47085938 111.2371875 32.16796875 111.359375 C30.50789887 111.49067996 28.84773722 111.62082823 27.1875 111.75 C25.93743164 111.87181641 25.93743164 111.87181641 24.66210938 111.99609375 C22.38089987 112.16100046 20.27233379 112.26500523 18 112 C15.40121806 109.71622193 15.04691985 108.68815782 14.8125 105.25 C14.874375 104.5075 14.93625 103.765 15 103 C12.03 103.99 9.06 104.98 6 106 C6.33 106.33 6.66 106.66 7 107 C7.01665074 108.56423432 6.96308892 110.12935006 6.87890625 111.69140625 C6.83056641 112.63564453 6.78222656 113.57988281 6.73242188 114.55273438 C6.67634766 115.54595703 6.62027344 116.53917969 6.5625 117.5625 C6.51029297 118.55958984 6.45808594 119.55667969 6.40429688 120.58398438 C6.2741763 123.05627522 6.13919819 125.5282063 6 128 C3.36 128.33 0.72 128.66 -2 129 C-1.360625 129.28875 -0.72125 129.5775 -0.0625 129.875 C2 131 2 131 3 133 C15.81633714 133.53525306 25.0811131 133.47264521 35.25 124.75 C44.69579015 115.65953738 50.0092821 106.99367457 50.47265625 93.64648438 C50.59434634 81.86862249 48.90596021 72.85763762 41.26953125 63.55859375 C40 62 40 62 39 60 C51.0090479 59.09365676 60.51949351 64.67779667 69.53515625 72.08203125 C76.81596295 78.70394141 84.37291606 89.68560468 85.14526367 99.92602539 C85.33711536 118.27571069 83.20445421 134.33248212 69.890625 148.3046875 C49.64793448 166.45619098 28.68425575 175.4553694 1.16796875 174.4765625 C-21.13983841 173.09555344 -39.85773129 163.8919402 -55.1875 147.6875 C-67.3863872 133.75408353 -74.91501402 117.54522333 -76 99 C-76.06960937 97.86175781 -76.13921875 96.72351563 -76.2109375 95.55078125 C-76.88499528 72.81429391 -69.08136629 49.50970909 -53.35961914 32.82641602 C-46.41862431 25.76380936 -38.92350502 20.34840545 -30 16 C-29.505 18.475 -29.505 18.475 -29 21 C-28.01 21 -27.02 21 -26 21 C-25.7525 20.443125 -25.505 19.88625 -25.25 19.3125 C-21.21257173 11.8432577 -9.26845924 -1.47187796 0 0 Z " fill="#FCF8F7" transform="translate(154,34)"/>
<path d="M0 0 C-1.01785311 3.39284371 -2.2129447 6.49302132 -3.875 9.609375 C-10.33825053 22.45354166 -12.56018948 36.30037417 -12.625 50.5625 C-12.63563477 51.70235352 -12.64626953 52.84220703 -12.65722656 54.01660156 C-12.38525106 70.44487593 -5.78779754 85.71885033 5 98 C5.64453125 98.76183594 6.2890625 99.52367187 6.953125 100.30859375 C13.26435794 107.23926251 23.47295169 114.36846314 33.10961914 115.17700195 C51.59014483 115.68809096 51.59014483 115.68809096 67.25 106.75 C76.69579015 97.65953738 82.0092821 88.99367457 82.47265625 75.64648438 C82.59434634 63.86862249 80.90596021 54.85763762 73.26953125 45.55859375 C72 44 72 44 71 42 C83.0090479 41.09365676 92.51949351 46.67779667 101.53515625 54.08203125 C108.81596295 60.70394141 116.37291606 71.68560468 117.14526367 81.92602539 C117.33711536 100.27571069 115.20445421 116.33248212 101.890625 130.3046875 C81.64793448 148.45619098 60.68425575 157.4553694 33.16796875 156.4765625 C10.86016159 155.09555344 -7.85773129 145.8919402 -23.1875 129.6875 C-35.3863872 115.75408353 -42.91501402 99.54522333 -44 81 C-44.06960937 79.86175781 -44.13921875 78.72351563 -44.2109375 77.55078125 C-44.88500284 54.8140387 -37.08119523 31.50926923 -21.35913086 14.82592773 C-6.78856574 0 -6.78856574 0 0 0 Z " fill="#F26524" transform="translate(122,52)"/>
<path d="M0 0 C9.11906884 -0.09057755 18.23783608 -0.16387477 27.35725403 -0.20724869 C31.59234407 -0.22807209 35.82710884 -0.25629279 40.06201172 -0.30175781 C44.15339326 -0.34540424 48.24446307 -0.36917653 52.33605957 -0.37950897 C53.89250593 -0.3868668 55.44893635 -0.40123476 57.00524902 -0.42292023 C71.54659794 -0.61737283 71.54659794 -0.61737283 77.43286133 2.45513916 C81.08770367 6.05802569 82.82358664 9.66095634 83.48101807 14.65110779 C83.4676944 16.59969444 83.4676944 16.59969444 83.45410156 18.58764648 C83.45468567 19.31043289 83.45526978 20.0332193 83.45587158 20.77790833 C83.45310742 23.14280957 83.42209761 25.50641553 83.390625 27.87109375 C83.3831566 29.52018038 83.3774665 31.16927593 83.37347412 32.81837463 C83.35826475 37.14058304 83.31902427 41.46224639 83.2746582 45.78424072 C83.23360349 50.20178862 83.21544141 54.61942533 83.1953125 59.03710938 C83.15252473 67.69165526 83.08433134 76.34575966 83 85 C80.68408203 85.62451172 80.68408203 85.62451172 78 86 C75.7089742 84.45036717 73.87831548 82.98849322 71.875 81.125 C70.7169363 80.09546432 69.55807019 79.0668306 68.3984375 78.0390625 C67.82448242 77.5224707 67.25052734 77.00587891 66.65917969 76.47363281 C64.33255566 74.40719629 61.92198896 72.45321691 59.5 70.5 C55.41320222 67.17575341 51.3851176 63.7906821 47.375 60.375 C43.03995018 56.68856079 38.66450968 53.08538374 34.1328125 49.640625 C32.58482886 48.44986836 31.06170045 47.22657736 29.5546875 45.984375 C28.75289062 45.32953125 27.95109375 44.6746875 27.125 44 C26.40570313 43.401875 25.68640625 42.80375 24.9453125 42.1875 C24.30335937 41.795625 23.66140625 41.40375 23 41 C21.515 41.495 21.515 41.495 20 42 C19.97534119 45.96930989 19.95715977 49.93859034 19.94506836 53.90795898 C19.94002943 55.25920386 19.93319823 56.61044326 19.92456055 57.96166992 C19.91247581 59.90020434 19.90730172 61.838778 19.90234375 63.77734375 C19.89710693 64.94515381 19.89187012 66.11296387 19.88647461 67.31616211 C19.69338505 69.91891551 19.69338505 69.91891551 21 71 C22.48638992 71.15655027 23.97949127 71.25066943 25.47265625 71.31640625 C26.37177734 71.35830078 27.27089844 71.40019531 28.19726562 71.44335938 C29.14279297 71.48267578 30.08832031 71.52199219 31.0625 71.5625 C32.01189453 71.60568359 32.96128906 71.64886719 33.93945312 71.69335938 C36.29278176 71.79979132 38.64637099 71.90043154 41 72 C41 77.61 41 83.22 41 89 C37.29146989 89.05409525 33.58373414 89.09372152 29.875 89.125 C28.82828125 89.14175781 27.7815625 89.15851563 26.703125 89.17578125 C15.03813351 89.24961031 15.03813351 89.24961031 9.953125 85.484375 C9.11007813 84.62585938 9.11007813 84.62585938 8.25 83.75 C7.67765625 83.18796875 7.1053125 82.6259375 6.515625 82.046875 C2.96770183 77.25534989 2.70055236 71.9937486 2.734375 66.22265625 C2.73246155 65.49308212 2.7305481 64.763508 2.72857666 64.01182556 C2.72722221 62.47638604 2.73086667 60.94093477 2.73925781 59.40551758 C2.74995271 57.07281388 2.73934565 54.7408829 2.7265625 52.40820312 C2.72788453 50.90885249 2.73044782 49.40950233 2.734375 47.91015625 C2.73032654 47.22139908 2.72627808 46.53264191 2.72210693 45.82301331 C2.79775864 37.893301 4.55565976 32.57396739 10 27 C15.35837183 23.54682704 21.92250468 24.19646966 28 25 C36.21952107 28.09899546 42.82037278 34.09891622 49.30859375 39.86328125 C54.70406052 44.44800064 60.3879807 48.68306208 66 53 C66 40.79 66 28.58 66 16 C44.22 16 22.44 16 0 16 C0 10.72 0 5.44 0 0 Z " fill="#EA1E27" transform="translate(36,226)"/>
<path d="M0 0 C0.70313324 -0.00058411 1.40626648 -0.00116821 2.13070679 -0.00177002 C4.4361244 0.0009988 6.74022072 0.03203066 9.04541016 0.06347656 C10.65108535 0.07094331 12.25676969 0.07663419 13.86245728 0.08062744 C18.07453881 0.09584984 22.28606259 0.13510166 26.4979248 0.17944336 C30.80143694 0.22046981 35.10503979 0.23865414 39.40869141 0.25878906 C47.84256877 0.3016 56.27588693 0.37192136 64.70947266 0.45410156 C64.70947266 5.73410156 64.70947266 11.01410156 64.70947266 16.45410156 C42.92947266 16.45410156 21.14947266 16.45410156 -1.29052734 16.45410156 C-0.79552734 34.76910156 -0.79552734 34.76910156 -0.29052734 53.45410156 C3.14353516 50.45316406 3.14353516 50.45316406 6.64697266 47.39160156 C32.40726559 25.03835972 32.40726559 25.03835972 47.53759766 25.17285156 C52.95821603 25.65349753 55.44972736 28.05438457 58.95947266 31.95410156 C61.74569519 35.93441947 62.96036653 38.57842171 62.95239258 43.48217773 C62.95700752 44.97843941 62.95700752 44.97843941 62.9617157 46.50492859 C62.95093742 48.10978874 62.95093742 48.10978874 62.93994141 49.74707031 C62.93948318 50.84884109 62.93902496 51.95061188 62.93855286 53.08576965 C62.93553402 55.41160155 62.92765876 57.73743149 62.9152832 60.06323242 C62.89698978 63.63825574 62.89477381 67.21302064 62.89501953 70.78808594 C62.89010571 73.04524965 62.88427799 75.3024116 62.87744141 77.55957031 C62.87632858 78.63554977 62.87521576 79.71152924 62.87406921 80.82011414 C62.86768936 81.80816544 62.86130951 82.79621674 62.85473633 83.81420898 C62.85092453 84.68816818 62.84711273 85.56212738 62.84318542 86.46257019 C62.70947266 88.45410156 62.70947266 88.45410156 61.70947266 89.45410156 C59.19811161 89.55385188 56.72043851 89.59292339 54.20947266 89.57910156 C53.50693359 89.58296875 52.80439453 89.58683594 52.08056641 89.59082031 C46.83608644 89.58071534 46.83608644 89.58071534 45.70947266 88.45410156 C45.61643248 86.98055808 45.59201001 85.50259565 45.59594727 84.02612305 C45.5960228 83.08522324 45.59609833 82.14432343 45.59617615 81.1749115 C45.60133743 80.15200516 45.60649872 79.12909882 45.61181641 78.07519531 C45.61323135 77.03339615 45.6146463 75.99159698 45.61610413 74.91822815 C45.62172186 71.57599062 45.63427736 68.23381899 45.64697266 64.89160156 C45.65198537 62.6318369 45.65654867 60.3720712 45.66064453 58.11230469 C45.67169705 52.55954766 45.68845242 47.00682932 45.70947266 41.45410156 C41.93317696 42.66513047 38.97742637 43.68785727 35.89697266 46.20410156 C35.13384766 46.8215625 34.37072266 47.43902344 33.58447266 48.07519531 C32.16134766 49.25275391 32.16134766 49.25275391 30.70947266 50.45410156 C29.39733161 51.52875874 28.08479902 52.60293795 26.77197266 53.67675781 C19.31420919 59.7891661 11.90112461 65.95476812 4.49853516 72.13378906 C-0.07311736 75.93709662 -4.65644098 79.72701565 -9.29052734 83.45410156 C-9.97115234 84.05351562 -10.65177734 84.65292969 -11.35302734 85.27050781 C-13.29052734 86.45410156 -13.29052734 86.45410156 -15.41162109 86.02807617 C-16.03166016 85.83866455 -16.65169922 85.64925293 -17.29052734 85.45410156 C-17.38330527 75.77900503 -17.4543317 66.10406219 -17.49777603 56.42861748 C-17.51862971 51.93564997 -17.54690652 47.44298736 -17.59228516 42.95019531 C-17.63582252 38.61243833 -17.65968115 34.27497418 -17.67003632 29.93701553 C-17.67741357 28.28402219 -17.69181981 26.63104443 -17.71344757 24.97817612 C-17.74258754 22.65844136 -17.74647909 20.33990857 -17.74462891 18.02001953 C-17.75351135 16.70097626 -17.7623938 15.38193298 -17.77154541 14.0229187 C-17.02498047 8.48392975 -14.71180149 5.64765209 -10.4961853 2.10748291 C-6.70205043 0.15058298 -4.25498479 -0.02985954 0 0 Z " fill="#EA1E27" transform="translate(230.29052734375,225.5458984375)"/>
<path d="M0 0 C1.72126854 -0.00929787 1.72126854 -0.00929787 3.47731018 -0.01878357 C5.89705561 -0.02586772 8.31684992 -0.02273243 10.73657227 -0.01000977 C14.42621122 0.00384917 18.11330952 -0.03023278 21.80273438 -0.06835938 C24.16015687 -0.06931072 26.51758251 -0.06745093 28.875 -0.0625 C29.97106064 -0.07575821 31.06712128 -0.08901642 32.19639587 -0.10267639 C38.86580693 -0.02214038 44.0592246 0.79497492 49.00390625 5.56640625 C52.20014064 9.69060754 52.41994795 13.34321884 52.34448242 18.38598633 C52.34513954 19.54287964 52.34513954 19.54287964 52.34580994 20.72314453 C52.34372741 23.26100374 52.32042222 25.79819434 52.296875 28.3359375 C52.29127713 30.09998717 52.28700793 31.86404152 52.28401184 33.62809753 C52.27257811 38.26257285 52.24312365 42.89676443 52.2098999 47.53112793 C52.17916724 52.26355145 52.16549968 56.99602099 52.15039062 61.72851562 C52.11825244 71.00795698 52.06549657 80.28711359 52.00390625 89.56640625 C46.72390625 89.56640625 41.44390625 89.56640625 36.00390625 89.56640625 C35.9788501 87.45113525 35.95379395 85.33586426 35.92797852 83.15649414 C35.84466514 76.18347636 35.75595889 69.2105348 35.66456699 62.23761845 C35.60929938 58.00813011 35.5558734 53.77863492 35.5065918 49.54907227 C35.45900466 45.47065962 35.40666417 41.39233363 35.3509655 37.31402397 C35.33051625 35.75465477 35.3118075 34.19526179 35.29483223 32.63585091 C35.27084481 30.45905035 35.24078306 28.28241501 35.20922852 26.10571289 C35.18591209 24.24373009 35.18591209 24.24373009 35.16212463 22.34413147 C35.31839111 19.65897409 35.31839111 19.65897409 34.00390625 18.56640625 C31.28834398 18.46538512 28.59876087 18.42670348 25.8828125 18.43359375 C25.06771713 18.43263702 24.25262177 18.4316803 23.41282654 18.43069458 C21.68529178 18.43001272 19.95775448 18.43186741 18.23022461 18.43603516 C15.58115897 18.4413765 12.93226341 18.43609393 10.28320312 18.4296875 C8.60807254 18.43034842 6.93294206 18.43162986 5.2578125 18.43359375 C4.46194229 18.43156952 3.66607208 18.42954529 2.84608459 18.42745972 C-1.20588635 18.3490197 -1.20588635 18.3490197 -4.99609375 19.56640625 C-5.46508338 22.38239115 -5.46508338 22.38239115 -5.62109375 25.62890625 C-5.69585937 26.73363281 -5.770625 27.83835938 -5.84765625 28.9765625 C-5.89664063 29.83121094 -5.945625 30.68585938 -5.99609375 31.56640625 C-5.00609375 31.52 -4.01609375 31.47359375 -2.99609375 31.42578125 C11.31991118 30.94900408 11.31991118 30.94900408 17.00390625 35.56640625 C21.52963953 39.85822523 24.58815245 44.06150501 25.33984375 50.3984375 C25.44080962 58.10213346 24.67108326 63.49983373 19.42578125 69.31640625 C13.76231806 74.62271411 7.70180773 75.82383736 0.01171875 75.796875 C-1.91027344 75.79397461 -1.91027344 75.79397461 -3.87109375 75.79101562 C-4.52722656 75.78481201 -5.18335938 75.7786084 -5.859375 75.7722168 C-7.8868444 75.75376289 -9.91386095 75.75170884 -11.94140625 75.75195312 C-21.85570309 75.70679691 -21.85570309 75.70679691 -22.99609375 74.56640625 C-23.09584407 72.05504521 -23.13491558 69.5773721 -23.12109375 67.06640625 C-23.12496094 66.36386719 -23.12882812 65.66132813 -23.1328125 64.9375 C-23.12270753 59.69302003 -23.12270753 59.69302003 -21.99609375 58.56640625 C-19.92524655 58.40797975 -17.84931346 58.31516203 -15.7734375 58.25 C-14.51337891 58.20810547 -13.25332031 58.16621094 -11.95507812 58.12304688 C-10.61458639 58.08323029 -9.27409155 58.04351811 -7.93359375 58.00390625 C-6.58917852 57.96072583 -5.24477715 57.91711169 -3.90039062 57.87304688 C-0.59907035 57.76655267 2.70232861 57.66454165 6.00390625 57.56640625 C7.01930737 53.4641704 7.01930737 53.4641704 6.00390625 49.56640625 C4.73945679 49.52882202 4.73945679 49.52882202 3.44946289 49.49047852 C0.33148951 49.3955247 -2.78630878 49.29628177 -5.90405273 49.1940918 C-7.25523522 49.15069402 -8.60647428 49.10902255 -9.95776367 49.0690918 C-11.89646076 49.01150673 -13.83495651 48.94726327 -15.7734375 48.8828125 C-16.94124756 48.84615479 -18.10905762 48.80949707 -19.31225586 48.77172852 C-21.99609375 48.56640625 -21.99609375 48.56640625 -22.99609375 47.56640625 C-23.13441639 44.98196702 -23.20924759 42.4262029 -23.234375 39.83984375 C-23.24244675 39.0588028 -23.25051849 38.27776184 -23.25883484 37.47305298 C-23.27269651 35.81360098 -23.2834093 34.15412023 -23.29125977 32.49462891 C-23.30838321 29.97241749 -23.35223688 27.45154763 -23.39648438 24.9296875 C-23.40661907 23.31641588 -23.41513274 21.70313311 -23.421875 20.08984375 C-23.43938309 19.34165375 -23.45689117 18.59346375 -23.47492981 17.82260132 C-23.45341214 12.54910662 -22.45995077 8.64266894 -18.99609375 4.56640625 C-13.05423108 -0.19085527 -7.40853299 -0.03346313 0 0 Z " fill="#EA2029" transform="translate(150.99609375,225.43359375)"/>
<path d="M0 0 C-1.01785311 3.39284371 -2.2129447 6.49302132 -3.875 9.609375 C-10.33825053 22.45354166 -12.56018948 36.30037417 -12.625 50.5625 C-12.63563477 51.70235352 -12.64626953 52.84220703 -12.65722656 54.01660156 C-12.38525106 70.44487593 -5.78779754 85.71885033 5 98 C5.64453125 98.76183594 6.2890625 99.52367187 6.953125 100.30859375 C18.6596909 113.16413741 33.37456729 116.02354491 50 117 C45.81062255 121.18937745 39.69021476 121.59747677 34 122 C32.51886719 122.11601562 32.51886719 122.11601562 31.0078125 122.234375 C12.87366661 122.9882194 -3.85618604 116.27591086 -17.5 104.5 C-29.56245829 92.90980762 -37.61607532 77.48047051 -38.20703125 60.58203125 C-38.39865745 48.77510174 -38.39865745 48.77510174 -37 43 C-36.34 43 -35.68 43 -35 43 C-35.020625 42.42894531 -35.04125 41.85789063 -35.0625 41.26953125 C-34.74831852 28.91827186 -26.41322114 19.73189908 -18.01538086 11.48242188 C-5.81087219 0 -5.81087219 0 0 0 Z " fill="#EC1D25" transform="translate(122,52)"/>
<path d="M0 0 C12.0090479 -0.90634324 21.51949351 4.67779667 30.53515625 12.08203125 C37.81596295 18.70394141 45.37291606 29.68560468 46.14526367 39.92602539 C46.33711536 58.27571069 44.20445421 74.33248212 30.890625 88.3046875 C12.38372194 104.89972041 -6.78817245 114.35044148 -32 114.5 C-33.02593262 114.50644531 -34.05186523 114.51289063 -35.10888672 114.51953125 C-42.12047718 114.40147954 -48.33256644 113.14591612 -55 111 C-51.56368516 110.05948659 -48.69606094 109.99141917 -45.125 110.125 C-27.71901852 110.18334407 -12.08423173 103.37849723 1 92 C6.33446101 86.68469325 9.96696972 80.58761779 13.375 73.9375 C13.70910889 73.28910156 14.04321777 72.64070313 14.38745117 71.97265625 C18.34745237 63.8508314 19.39083556 55.8429279 19.375 46.875 C19.37411377 45.96427734 19.37322754 45.05355469 19.37231445 44.11523438 C19.21816839 35.20762632 18.03763369 26.0458068 13.36328125 18.28125 C12 16 12 16 12 13 C11.34 13 10.68 13 10 13 C10 12.01 10 11.02 10 10 C9.01 10 8.02 10 7 10 C5.4296875 8.3203125 5.4296875 8.3203125 3.875 6.125 C3.35679687 5.40570313 2.83859375 4.68640625 2.3046875 3.9453125 C1 2 1 2 0 0 Z " fill="#F79320" transform="translate(193,94)"/>
<path d="M0 0 C12.6209016 0 23.37350132 3.1412444 34 10 C34.75925781 10.43183594 35.51851563 10.86367187 36.30078125 11.30859375 C38 13 38 13 38.4609375 15.8828125 C37.92165633 19.52981568 36.92882267 21.02481622 34.625 23.875 C30.44568262 29.25903165 26.9158417 34.88245946 23.50244141 40.78076172 C20.49498491 45.79075303 20.49498491 45.79075303 18.02832031 46.83349609 C16 47 16 47 13.25 44.875 C12.73308594 44.40964844 12.21617187 43.94429687 11.68359375 43.46484375 C-1.20019271 32.25505275 -18.83690625 29.89197751 -35.29394531 30.74853516 C-46.2420647 31.76590821 -57.35148977 34.41130529 -67.20068359 39.31933594 C-67.79445801 39.54395508 -68.38823242 39.76857422 -69 40 C-69.66 39.67 -70.32 39.34 -71 39 C-58.41102551 25.59883361 -42.31693099 18.43428769 -24 17 C-19.83216557 16.88760342 -15.66893823 16.90508601 -11.5 16.9375 C-9.83710938 16.94426758 -9.83710938 16.94426758 -8.140625 16.95117188 C-5.42705973 16.96286828 -2.71352256 16.98080055 0 17 C0 11.39 0 5.78 0 0 Z " fill="#EA1E27" transform="translate(216,59)"/>
<path d="M0 0 C0.93457031 -0.01417969 1.86914062 -0.02835938 2.83203125 -0.04296875 C5.1875 0.1875 5.1875 0.1875 7.1875 2.1875 C8.84052786 9.82846694 8.30628277 18.04547713 8.25 25.8125 C8.24548828 27.00746094 8.24097656 28.20242187 8.23632812 29.43359375 C8.22465603 32.35161647 8.20828326 35.26953037 8.1875 38.1875 C7.39166504 38.20731934 6.59583008 38.22713867 5.77587891 38.24755859 C2.12112362 38.34363858 -1.5331238 38.45297824 -5.1875 38.5625 C-6.43917969 38.5934375 -7.69085938 38.624375 -8.98046875 38.65625 C-31.45710074 39.36232221 -49.64849169 47.11424754 -65.38671875 63.421875 C-68.61640858 67.10403345 -71.34094561 70.96395769 -73.8125 75.1875 C-75.08850824 71.31213692 -74.25580493 69.30853444 -72.46313477 65.65429688 C-72.10405029 64.96400391 -71.74496582 64.27371094 -71.375 63.5625 C-71.00882568 62.84900391 -70.64265137 62.13550781 -70.26538086 61.40039062 C-62.00176672 45.76126645 -48.43901907 33.46862943 -31.8125 27.1875 C-32.16183594 26.36765625 -32.51117188 25.5478125 -32.87109375 24.703125 C-33.55365234 23.08664063 -33.55365234 23.08664063 -34.25 21.4375 C-34.70246094 20.37015625 -35.15492188 19.3028125 -35.62109375 18.203125 C-36.55229553 15.8461159 -37.2909072 13.65757165 -37.8125 11.1875 C-26.7775729 3.3981397 -13.45630009 0.0941 0 0 Z " fill="#F26726" transform="translate(203.8125,33.8125)"/>
<path d="M0 0 C1.51953125 1.4765625 1.51953125 1.4765625 2.8125 3.625 C3.30492187 4.43453125 3.79734375 5.2440625 4.3046875 6.078125 C4.86414063 7.04234375 5.42359375 8.0065625 6 9 C6.73071462 10.20376678 7.46254697 11.40685556 8.1953125 12.609375 C8.94455819 13.86348002 9.6919618 15.11868743 10.4375 16.375 C10.80399658 16.98166504 11.17049316 17.58833008 11.5480957 18.21337891 C12.44546834 19.76529805 13.23176934 21.38026164 14 23 C13 26 13 26 10.6640625 27.2890625 C9.66117188 27.72992188 8.65828125 28.17078125 7.625 28.625 C0.87071148 31.86159723 -4.44619688 36.01920831 -10 41 C-10.97066406 41.82951172 -10.97066406 41.82951172 -11.9609375 42.67578125 C-17.62569198 47.84070445 -21.27936044 54.36721429 -25 61 C-25.48726562 61.85207031 -25.97453125 62.70414063 -26.4765625 63.58203125 C-31.00902715 72.41060503 -32.32148412 82.31187397 -34 92 C-36 91 -36 91 -36.81640625 89.1796875 C-37.18572266 88.03886719 -37.18572266 88.03886719 -37.5625 86.875 C-37.81128906 86.12992187 -38.06007813 85.38484375 -38.31640625 84.6171875 C-43.14939177 66.11375724 -40.65810366 44.92014512 -32 28 C-29.56166903 24.12680504 -26.88978083 20.54495382 -24 17 C-23.33871094 16.14664063 -22.67742187 15.29328125 -21.99609375 14.4140625 C-17.11395513 8.50963654 -8.16254946 -1.1753038 0 0 Z " fill="#F69422" transform="translate(154,34)"/>
<path d="M0 0 C2.60025916 0.91009071 3.76626458 1.77626765 5.5 3.875 C5.17 4.535 4.84 5.195 4.5 5.875 C3.51 5.875 2.52 5.875 1.5 5.875 C1.5 6.865 1.5 7.855 1.5 8.875 C2.05171875 8.54757813 2.6034375 8.22015625 3.171875 7.8828125 C5.88780923 6.70712285 7.80551759 6.67251362 10.75 6.75 C11.64203125 6.76804687 12.5340625 6.78609375 13.453125 6.8046875 C14.46632813 6.83949219 14.46632813 6.83949219 15.5 6.875 C18.78826796 12.13622874 18.65398834 15.00889261 17.5 20.875 C17.005 22.36 17.005 22.36 16.5 23.875 C22.11 23.875 27.72 23.875 33.5 23.875 C33.5 24.865 33.5 25.855 33.5 26.875 C28.22 26.875 22.94 26.875 17.5 26.875 C17.17 28.855 16.84 30.835 16.5 32.875 C15.84 32.875 15.18 32.875 14.5 32.875 C14.5 35.185 14.5 37.495 14.5 39.875 C16.1396875 39.813125 16.1396875 39.813125 17.8125 39.75 C23.16203382 39.73079162 28.27842235 40.79996931 33.5 41.875 C33.17 44.845 32.84 47.815 32.5 50.875 C31.84 50.875 31.18 50.875 30.5 50.875 C30.005 47.905 30.005 47.905 29.5 44.875 C28.23542969 44.99359375 26.97085938 45.1121875 25.66796875 45.234375 C24.00789887 45.36567996 22.34773722 45.49582823 20.6875 45.625 C19.85412109 45.70621094 19.02074219 45.78742188 18.16210938 45.87109375 C15.88089987 46.03600046 13.77233379 46.14000523 11.5 45.875 C8.90121806 43.59122193 8.54691985 42.56315782 8.3125 39.125 C8.4053125 38.01125 8.4053125 38.01125 8.5 36.875 C5.53 37.865 2.56 38.855 -0.5 39.875 C-0.005 40.37 -0.005 40.37 0.5 40.875 C0.73728814 47.40042373 0.73728814 47.40042373 -0.5 49.875 C-0.7275015 51.74556791 -0.90962811 53.62185958 -1.0625 55.5 C-1.14628906 56.50289062 -1.23007813 57.50578125 -1.31640625 58.5390625 C-1.40728516 59.69535156 -1.40728516 59.69535156 -1.5 60.875 C-3.48 60.875 -5.46 60.875 -7.5 60.875 C-6.84 59.885 -6.18 58.895 -5.5 57.875 C-5.47360171 55.57785813 -5.47360171 55.57785813 -5.875 53.1875 C-6.08125 51.764375 -6.2875 50.34125 -6.5 48.875 C-9.47 48.875 -12.44 48.875 -15.5 48.875 C-17.54651163 30.96802326 -17.54651163 30.96802326 -15.5 26.875 C-16.49 26.875 -17.48 26.875 -18.5 26.875 C-18.5 28.855 -18.5 30.835 -18.5 32.875 C-19.49 32.545 -20.48 32.215 -21.5 31.875 C-21.17 30.225 -20.84 28.575 -20.5 26.875 C-21.16 27.205 -21.82 27.535 -22.5 27.875 C-25.1723621 28.00915472 -27.82250488 27.91818541 -30.5 27.875 C-30.5 26.885 -30.5 25.895 -30.5 24.875 C-22.75 23.75 -22.75 23.75 -20.5 24.875 C-20.5 24.215 -20.5 23.555 -20.5 22.875 C-19.84 22.875 -19.18 22.875 -18.5 22.875 C-18.5 23.535 -18.5 24.195 -18.5 24.875 C-16.19 24.875 -13.88 24.875 -11.5 24.875 C-11.5 24.215 -11.5 23.555 -11.5 22.875 C-7.87 22.875 -4.24 22.875 -0.5 22.875 C-1.16 21.885 -1.82 20.895 -2.5 19.875 C-5.5 19.70833333 -5.5 19.70833333 -8.5 19.875 C-9.16 19.545 -9.82 19.215 -10.5 18.875 C-10.17 17.885 -9.84 16.895 -9.5 15.875 C-8.51 15.545 -7.52 15.215 -6.5 14.875 C-6.5 14.215 -6.5 13.555 -6.5 12.875 C-5.18 12.215 -3.86 11.555 -2.5 10.875 C-2.83 10.215 -3.16 9.555 -3.5 8.875 C-4.49 8.545 -5.48 8.215 -6.5 7.875 C-6.13803085 5.19642828 -5.76012724 3.26519086 -4.25 1 C-2.5 -0.125 -2.5 -0.125 0 0 Z " fill="#F5E0DF" transform="translate(160.5,100.125)"/>
<path d="M0 0 C0.7940625 0.08894531 1.588125 0.17789062 2.40625 0.26953125 C3.59734375 0.38361328 3.59734375 0.38361328 4.8125 0.5 C6.90625 1.08203125 6.90625 1.08203125 8.90625 4.08203125 C5.60625 3.75203125 2.30625 3.42203125 -1.09375 3.08203125 C-1.75375 4.40203125 -2.41375 5.72203125 -3.09375 7.08203125 C-1.82668213 7.07679443 -0.55961426 7.07155762 0.74584961 7.06616211 C5.4291107 7.04811611 10.11236871 7.03660072 14.7956543 7.02709961 C16.82593298 7.02205847 18.85620802 7.01522568 20.88647461 7.0065918 C23.79802347 6.99451658 26.7095245 6.98880091 29.62109375 6.984375 C30.5346312 6.97921371 31.44816864 6.97405243 32.38938904 6.96873474 C34.56200427 6.96853957 36.73452296 7.0199132 38.90625 7.08203125 C39.40125 7.57703125 39.40125 7.57703125 39.90625 8.08203125 C40.73125 8.08203125 41.55625 8.08203125 42.40625 8.08203125 C43.23125 8.08203125 44.05625 8.08203125 44.90625 8.08203125 C45.40125 8.57703125 45.40125 8.57703125 45.90625 9.08203125 C46.23625 8.42203125 46.56625 7.76203125 46.90625 7.08203125 C52.51625 7.08203125 58.12625 7.08203125 63.90625 7.08203125 C63.90625 8.07203125 63.90625 9.06203125 63.90625 10.08203125 C63.24625 10.08203125 62.58625 10.08203125 61.90625 10.08203125 C61.90625 14.37203125 61.90625 18.66203125 61.90625 23.08203125 C58.14426156 21.20103703 54.54706132 19.18249932 50.90625 17.08203125 C51.03125 15.26953125 51.03125 15.26953125 51.90625 13.08203125 C54.96875 11.33203125 54.96875 11.33203125 57.90625 10.08203125 C54.60625 9.75203125 51.30625 9.42203125 47.90625 9.08203125 C47.90625 13.70203125 47.90625 18.32203125 47.90625 23.08203125 C47.57625 23.08203125 47.24625 23.08203125 46.90625 23.08203125 C46.85726562 22.39496094 46.80828125 21.70789063 46.7578125 21 C46.68304688 20.09894531 46.60828125 19.19789063 46.53125 18.26953125 C46.42683594 16.92955078 46.42683594 16.92955078 46.3203125 15.5625 C46.03979964 12.83804626 46.03979964 12.83804626 43.90625 10.08203125 C42.91625 10.08203125 41.92625 10.08203125 40.90625 10.08203125 C41.89625 10.74203125 42.88625 11.40203125 43.90625 12.08203125 C43.57625 14.06203125 43.24625 16.04203125 42.90625 18.08203125 C41.91625 18.41203125 40.92625 18.74203125 39.90625 19.08203125 C40.56625 17.43203125 41.22625 15.78203125 41.90625 14.08203125 C39.92625 13.42203125 37.94625 12.76203125 35.90625 12.08203125 C34.4279274 15.03867644 34.84592217 17.82432862 34.90625 21.08203125 C36.22625 21.74203125 37.54625 22.40203125 38.90625 23.08203125 C38.90625 23.74203125 38.90625 24.40203125 38.90625 25.08203125 C36.53125 24.76953125 36.53125 24.76953125 33.90625 24.08203125 C31.42238941 20.35624036 31.5258288 18.49491723 31.90625 14.08203125 C33.40625 11.14453125 33.40625 11.14453125 34.90625 9.08203125 C33.25625 9.08203125 31.60625 9.08203125 29.90625 9.08203125 C29.90625 14.03203125 29.90625 18.98203125 29.90625 24.08203125 C28.91625 23.75203125 27.92625 23.42203125 26.90625 23.08203125 C26.57625 21.43203125 26.24625 19.78203125 25.90625 18.08203125 C25.349375 18.90703125 24.7925 19.73203125 24.21875 20.58203125 C21.90625 23.08203125 21.90625 23.08203125 19.40625 23.70703125 C15.85293301 22.818702 14.83906999 21.11931981 12.90625 18.08203125 C12.15625 15.76953125 12.15625 15.76953125 11.90625 14.08203125 C13.9308238 16.01457897 15.32730792 17.71361813 16.90625 20.08203125 C19.49005177 20.33234102 19.49005177 20.33234102 21.90625 20.08203125 C22.23625 19.42203125 22.56625 18.76203125 22.90625 18.08203125 C22.1225 18.12328125 21.33875 18.16453125 20.53125 18.20703125 C17.90625 18.08203125 17.90625 18.08203125 15.90625 16.08203125 C16.28125 13.45703125 16.28125 13.45703125 16.90625 11.08203125 C14.59625 10.75203125 12.28625 10.42203125 9.90625 10.08203125 C9.90625 14.37203125 9.90625 18.66203125 9.90625 23.08203125 C5.90625 21.08203125 1.90625 19.08203125 -2.09375 17.08203125 C-2.09375 16.09203125 -2.09375 15.10203125 -2.09375 14.08203125 C0.54625 12.76203125 3.18625 11.44203125 5.90625 10.08203125 C2.60625 9.75203125 -0.69375 9.42203125 -4.09375 9.08203125 C-4.09375 13.70203125 -4.09375 18.32203125 -4.09375 23.08203125 C-4.42375 23.08203125 -4.75375 23.08203125 -5.09375 23.08203125 C-5.09375 18.46203125 -5.09375 13.84203125 -5.09375 9.08203125 C-5.75375 9.08203125 -6.41375 9.08203125 -7.09375 9.08203125 C-7.09375 8.42203125 -7.09375 7.76203125 -7.09375 7.08203125 C-6.43375 7.08203125 -5.77375 7.08203125 -5.09375 7.08203125 C-4.97 6.29828125 -4.84625 5.51453125 -4.71875 4.70703125 C-3.97585155 1.58685776 -3.37808143 0.13235021 0 0 Z " fill="#343031" transform="translate(84.09375,330.91796875)"/>
<path d="M0 0 C3.7109611 0.31991044 4.99743948 0.7900419 7.625 3.3125 C7.295 3.9725 6.965 4.6325 6.625 5.3125 C5.635 4.6525 4.645 3.9925 3.625 3.3125 C0.49978167 3.14550768 0.49978167 3.14550768 -2.375 3.3125 C-3.035 4.6325 -3.695 5.9525 -4.375 7.3125 C1.565 7.3125 7.505 7.3125 13.625 7.3125 C13.955 5.6625 14.285 4.0125 14.625 2.3125 C16.625 0.3125 16.625 0.3125 19.4375 0 C22.94725593 0.34409372 24.77364101 1.29977601 27.625 3.3125 C26.635 3.6425 25.645 3.9725 24.625 4.3125 C23.965 3.9825 23.305 3.6525 22.625 3.3125 C20.62539988 3.272508 18.62452758 3.26903201 16.625 3.3125 C15.965 4.6325 15.305 5.9525 14.625 7.3125 C23.205 7.3125 31.785 7.3125 40.625 7.3125 C40.625 6.3225 40.625 5.3325 40.625 4.3125 C37.985 4.6425 35.345 4.9725 32.625 5.3125 C32.955 4.3225 33.285 3.3325 33.625 2.3125 C37 2.1875 37 2.1875 40.625 2.3125 C42.625 4.3125 42.625 4.3125 42.625 7.3125 C50.545 7.3125 58.465 7.3125 66.625 7.3125 C66.625 7.9725 66.625 8.6325 66.625 9.3125 C65.965 9.3125 65.305 9.3125 64.625 9.3125 C64.625 13.9325 64.625 18.5525 64.625 23.3125 C63.965 23.3125 63.305 23.3125 62.625 23.3125 C62.13 19.8475 62.13 19.8475 61.625 16.3125 C60.965 16.9725 60.305 17.6325 59.625 18.3125 C58.635 18.3125 57.645 18.3125 56.625 18.3125 C56.625 17.3225 56.625 16.3325 56.625 15.3125 C55.635 15.3125 54.645 15.3125 53.625 15.3125 C54.285 17.6225 54.945 19.9325 55.625 22.3125 C51.75 21.4375 51.75 21.4375 50.625 20.3125 C50.4375 17.875 50.4375 17.875 50.625 15.3125 C51.285 14.6525 51.945 13.9925 52.625 13.3125 C54.62951121 13.61753431 56.62948218 13.95330679 58.625 14.3125 C60.90150745 13.9547386 60.90150745 13.9547386 62.625 13.3125 C62.625 11.9925 62.625 10.6725 62.625 9.3125 C58.005 9.3125 53.385 9.3125 48.625 9.3125 C48.625 14.2625 48.625 19.2125 48.625 24.3125 C47.965 24.3125 47.305 24.3125 46.625 24.3125 C46.625 19.3625 46.625 14.4125 46.625 9.3125 C42.665 9.3125 38.705 9.3125 34.625 9.3125 C34.625 13.2725 34.625 17.2325 34.625 21.3125 C36.935 20.3225 39.245 19.3325 41.625 18.3125 C41.625 17.3225 41.625 16.3325 41.625 15.3125 C40.305 14.6525 38.985 13.9925 37.625 13.3125 C39.28114657 12.93031233 40.94957024 12.59854898 42.625 12.3125 C43.625 13.3125 43.625 13.3125 44 16.125 C43.625 19.3125 43.625 19.3125 41.4375 21.6875 C38.625 23.3125 38.625 23.3125 33.625 23.3125 C33.625 18.6925 33.625 14.0725 33.625 9.3125 C31.315 9.3125 29.005 9.3125 26.625 9.3125 C26.625 9.9725 26.625 10.6325 26.625 11.3125 C27.945 11.6425 29.265 11.9725 30.625 12.3125 C30.295 15.6125 29.965 18.9125 29.625 22.3125 C29.295 22.3125 28.965 22.3125 28.625 22.3125 C28.625 19.3425 28.625 16.3725 28.625 13.3125 C26.645 12.6525 24.665 11.9925 22.625 11.3125 C22.295 12.6325 21.965 13.9525 21.625 15.3125 C23.275 14.9825 24.925 14.6525 26.625 14.3125 C26.75 17.1875 26.75 17.1875 26.625 20.3125 C24.625 22.3125 24.625 22.3125 22.1875 22.625 C19.23220543 22.26459822 18.43612073 21.60023145 16.625 19.3125 C16.955 18.3225 17.285 17.3325 17.625 16.3125 C18.058125 16.9725 18.49125 17.6325 18.9375 18.3125 C19.494375 18.9725 20.05125 19.6325 20.625 20.3125 C21.615 20.3125 22.605 20.3125 23.625 20.3125 C24.12 18.8275 24.12 18.8275 24.625 17.3125 C22.975 16.9825 21.325 16.6525 19.625 16.3125 C19.955 14.3325 20.285 12.3525 20.625 10.3125 C18.645 10.3125 16.665 10.3125 14.625 10.3125 C14.625 14.9325 14.625 19.5525 14.625 24.3125 C13.965 24.3125 13.305 24.3125 12.625 24.3125 C12.625 19.6925 12.625 15.0725 12.625 10.3125 C10.315 10.3125 8.005 10.3125 5.625 10.3125 C5.625 11.6325 5.625 12.9525 5.625 14.3125 C6.264375 14.126875 6.90375 13.94125 7.5625 13.75 C8.243125 13.605625 8.92375 13.46125 9.625 13.3125 C9.955 13.6425 10.285 13.9725 10.625 14.3125 C10.57421875 16.125 10.57421875 16.125 10.3125 18.3125 C10.19455078 19.3953125 10.19455078 19.3953125 10.07421875 20.5 C9.92597656 21.098125 9.77773437 21.69625 9.625 22.3125 C6.75029507 23.74985246 4.80605412 23.69422649 1.625 23.3125 C-1.18019876 20.58311743 -2.7979284 18.20773329 -3.375 14.3125 C-2.715 14.3125 -2.055 14.3125 -1.375 14.3125 C-1.00375 15.281875 -0.6325 16.25125 -0.25 17.25 C1.33552362 20.62390969 1.33552362 20.62390969 4.8125 21.1875 C5.740625 21.22875 6.66875 21.27 7.625 21.3125 C7.625 19.6625 7.625 18.0125 7.625 16.3125 C6.985625 16.498125 6.34625 16.68375 5.6875 16.875 C5.006875 17.019375 4.32625 17.16375 3.625 17.3125 C2.625 16.3125 2.625 16.3125 2.5625 12.75 C2.583125 11.615625 2.60375 10.48125 2.625 9.3125 C0.315 9.3125 -1.995 9.3125 -4.375 9.3125 C-4.375 14.2625 -4.375 19.2125 -4.375 24.3125 C-5.035 24.3125 -5.695 24.3125 -6.375 24.3125 C-6.375 19.3625 -6.375 14.4125 -6.375 9.3125 C-7.035 9.3125 -7.695 9.3125 -8.375 9.3125 C-8.375 8.6525 -8.375 7.9925 -8.375 7.3125 C-7.715 7.3125 -7.055 7.3125 -6.375 7.3125 C-6.25125 6.52875 -6.1275 5.745 -6 4.9375 C-5.04046044 0.90743384 -4.12045326 0.38152345 0 0 Z " fill="#423E3F" transform="translate(161.375,330.6875)"/>
<path d="M0 0 C0.33 0 0.66 0 1 0 C1.82927069 4.40900502 2.18231714 8.66603007 2.31640625 13.1484375 C2.33718735 13.80582916 2.35796844 14.46322083 2.37937927 15.14053345 C2.44420753 17.21859362 2.50344564 19.29676856 2.5625 21.375 C2.60574888 22.79298011 2.64936509 24.21094907 2.69335938 25.62890625 C2.80050355 29.0858222 2.90006973 32.54283804 3 36 C3.33 31.71 3.66 27.42 4 23 C4.33 23 4.66 23 5 23 C5 28.61 5 34.22 5 40 C3.41832031 40.04898438 1.83664063 40.09796875 0.20703125 40.1484375 C-24.1148064 40.92492497 -24.1148064 40.92492497 -46.9375 48.75 C-47.6375415 49.10344482 -48.33758301 49.45688965 -49.05883789 49.82104492 C-58.31026761 54.18501088 -58.31026761 54.18501088 -64 62 C-63.01 62.33 -62.02 62.66 -61 63 C-61.66 63.99 -62.32 64.98 -63 66 C-63.66 66 -64.32 66 -65 66 C-65 65.34 -65 64.68 -65 64 C-70.62541841 64.45003347 -73.61487125 65.68441485 -78 69 C-74.85180435 58.58970886 -62.4599756 49.87308139 -53.47265625 44.71875 C-42.71862112 39.39616793 -32.33321059 35.84639073 -20.19140625 35.90234375 C-18.51220093 35.90609009 -18.51220093 35.90609009 -16.79907227 35.90991211 C-15.40100342 35.91901611 -14.00293457 35.92812012 -12.5625 35.9375 C-8.086875 35.958125 -3.61125 35.97875 1 36 C0.67 24.12 0.34 12.24 0 0 Z " fill="#F9F2EC" transform="translate(211,36)"/>
<path d="M0 0 C1.63881134 0.01665459 1.63881134 0.01665459 3.31072998 0.03364563 C4.55171448 0.03402328 5.79269897 0.03440094 7.07128906 0.03479004 C8.42031868 0.06032122 9.76933801 0.08640116 11.11834717 0.11299133 C12.50267255 0.12232128 13.88701449 0.12943654 15.2713623 0.13442993 C18.90828335 0.15348629 22.54419991 0.20257279 26.1807251 0.25794983 C29.89416923 0.30917325 33.60777629 0.33195041 37.32147217 0.35713196 C44.60317924 0.41069503 51.88405976 0.49598861 59.16522217 0.60127258 C59.16522217 1.26127258 59.16522217 1.92127258 59.16522217 2.60127258 C58.50522217 2.60127258 57.84522217 2.60127258 57.16522217 2.60127258 C57.16522217 7.22127258 57.16522217 11.84127258 57.16522217 16.60127258 C54.16522217 12.60127258 54.16522217 12.60127258 54.16522217 10.60127258 C51.69022217 10.10627258 51.69022217 10.10627258 49.16522217 9.60127258 C49.16522217 10.59127258 49.16522217 11.58127258 49.16522217 12.60127258 C49.82522217 12.93127258 50.48522217 13.26127258 51.16522217 13.60127258 C51.16522217 14.26127258 51.16522217 14.92127258 51.16522217 15.60127258 C47.29022217 14.72627258 47.29022217 14.72627258 46.16522217 13.60127258 C45.97772217 11.16377258 45.97772217 11.16377258 46.16522217 8.60127258 C46.82522217 7.94127258 47.48522217 7.28127258 48.16522217 6.60127258 C51.46237009 6.93098738 52.78790607 7.22395648 55.16522217 9.60127258 C55.49522217 7.29127258 55.82522217 4.98127258 56.16522217 2.60127258 C49.56522217 2.60127258 42.96522217 2.60127258 36.16522217 2.60127258 C36.66022217 5.07627258 36.66022217 5.07627258 37.16522217 7.60127258 C38.15522217 6.94127258 39.14522217 6.28127258 40.16522217 5.60127258 C41.15522217 5.60127258 42.14522217 5.60127258 43.16522217 5.60127258 C43.16522217 9.23127258 43.16522217 12.86127258 43.16522217 16.60127258 C42.50522217 16.60127258 41.84522217 16.60127258 41.16522217 16.60127258 C41.16522217 13.96127258 41.16522217 11.32127258 41.16522217 8.60127258 C39.18522217 9.92127258 37.20522217 11.24127258 35.16522217 12.60127258 C34.50522217 10.29127258 33.84522217 7.98127258 33.16522217 5.60127258 C31.93254869 6.6096332 31.93254869 6.6096332 32.06756592 8.66767883 C32.07916748 9.49138977 32.09076904 10.31510071 32.10272217 11.16377258 C32.11174561 11.99006165 32.12076904 12.81635071 32.13006592 13.66767883 C32.14166748 14.30576477 32.15326904 14.94385071 32.16522217 15.60127258 C33.48522217 16.26127258 34.80522217 16.92127258 36.16522217 17.60127258 C34.35272217 18.28877258 34.35272217 18.28877258 32.16522217 18.60127258 C30.02055255 17.01090163 29.24975393 16.1030095 28.80194092 13.44502258 C28.81869873 12.67158508 28.83545654 11.89814758 28.85272217 11.10127258 C28.85658936 10.32783508 28.86045654 9.55439758 28.86444092 8.75752258 C29.16522217 6.60127258 29.16522217 6.60127258 31.16522217 3.60127258 C29.84522217 3.60127258 28.52522217 3.60127258 27.16522217 3.60127258 C27.16522217 7.89127258 27.16522217 12.18127258 27.16522217 16.60127258 C26.50522217 16.60127258 25.84522217 16.60127258 25.16522217 16.60127258 C24.75272217 15.63189758 24.34022217 14.66252258 23.91522217 13.66377258 C22.51623049 10.47867159 22.51623049 10.47867159 19.97772217 9.72627258 C19.37959717 9.68502258 18.78147217 9.64377258 18.16522217 9.60127258 C18.16522217 10.59127258 18.16522217 11.58127258 18.16522217 12.60127258 C19.15522217 12.93127258 20.14522217 13.26127258 21.16522217 13.60127258 C21.16522217 14.26127258 21.16522217 14.92127258 21.16522217 15.60127258 C18.69022217 15.10627258 18.69022217 15.10627258 16.16522217 14.60127258 C16.16522217 12.29127258 16.16522217 9.98127258 16.16522217 7.60127258 C18.47772217 6.97627258 18.47772217 6.97627258 21.16522217 6.60127258 C22.15522217 7.26127258 23.14522217 7.92127258 24.16522217 8.60127258 C24.49522217 6.62127258 24.82522217 4.64127258 25.16522217 2.60127258 C21.20522217 2.60127258 17.24522217 2.60127258 13.16522217 2.60127258 C13.16522217 7.22127258 13.16522217 11.84127258 13.16522217 16.60127258 C12.50522217 16.60127258 11.84522217 16.60127258 11.16522217 16.60127258 C11.04147217 15.46689758 10.91772217 14.33252258 10.79022217 13.16377258 C10.58397217 11.98814758 10.37772217 10.81252258 10.16522217 9.60127258 C9.50522217 9.27127258 8.84522217 8.94127258 8.16522217 8.60127258 C7.83522217 9.59127258 7.50522217 10.58127258 7.16522217 11.60127258 C6.50522217 11.60127258 5.84522217 11.60127258 5.16522217 11.60127258 C4.83522217 10.94127258 4.50522217 10.28127258 4.16522217 9.60127258 C3.50522217 9.60127258 2.84522217 9.60127258 2.16522217 9.60127258 C2.16522217 10.92127258 2.16522217 12.24127258 2.16522217 13.60127258 C2.82522217 14.26127258 3.48522217 14.92127258 4.16522217 15.60127258 C0.29022217 14.72627258 0.29022217 14.72627258 -0.83477783 13.60127258 C-1.02227783 11.16377258 -1.02227783 11.16377258 -0.83477783 8.60127258 C-0.17477783 7.94127258 0.48522217 7.28127258 1.16522217 6.60127258 C2.83527045 6.91722766 4.501598 7.25307218 6.16522217 7.60127258 C8.89025182 7.22405244 8.89025182 7.22405244 11.16522217 6.60127258 C11.16522217 5.28127258 11.16522217 3.96127258 11.16522217 2.60127258 C9.24769264 2.66157225 7.33104791 2.75043965 5.41522217 2.85127258 C3.81420654 2.92088196 3.81420654 2.92088196 2.18084717 2.99189758 C-1.40861898 3.71723012 -2.63717666 4.71659324 -4.83477783 7.60127258 C-5.41859744 10.68634708 -5.41859744 10.68634708 -4.83477783 13.60127258 C-3.84477783 14.26127258 -2.85477783 14.92127258 -1.83477783 15.60127258 C-1.83477783 16.26127258 -1.83477783 16.92127258 -1.83477783 17.60127258 C-4.36524983 17.26387632 -5.51663413 16.99516479 -7.14727783 14.97627258 C-8.1499956 11.51233848 -7.69057865 9.0856045 -6.83477783 5.60127258 C-4.8098812 2.34418962 -3.81869131 0.80996626 0 0 Z " fill="#8B898A" transform="translate(241.83477783203125,337.3987274169922)"/>
<path d="M0 0 C2.60025916 0.91009071 3.76626458 1.77626765 5.5 3.875 C5.17 4.535 4.84 5.195 4.5 5.875 C3.51 5.875 2.52 5.875 1.5 5.875 C1.5 6.865 1.5 7.855 1.5 8.875 C2.05171875 8.54757813 2.6034375 8.22015625 3.171875 7.8828125 C5.88780923 6.70712285 7.80551759 6.67251362 10.75 6.75 C11.64203125 6.76804687 12.5340625 6.78609375 13.453125 6.8046875 C14.46632812 6.83949219 14.46632812 6.83949219 15.5 6.875 C17.69927162 10.3938346 18.78287602 13.01052041 18.4375 17.125 C17.5 20.875 17.5 20.875 15.625 22.375 C13.5 22.875 13.5 22.875 10.5 22.875 C9.84 19.905 9.18 16.935 8.5 13.875 C7.51 13.875 6.52 13.875 5.5 13.875 C5.5 16.845 5.5 19.815 5.5 22.875 C1.5 21.875 1.5 21.875 -1.375 20.875 C-4.41892103 19.90094527 -7.34087322 19.32630383 -10.5 18.875 C-10.005 17.39 -10.005 17.39 -9.5 15.875 C-8.51 15.545 -7.52 15.215 -6.5 14.875 C-6.5 14.215 -6.5 13.555 -6.5 12.875 C-5.18 12.215 -3.86 11.555 -2.5 10.875 C-2.83 10.215 -3.16 9.555 -3.5 8.875 C-4.49 8.545 -5.48 8.215 -6.5 7.875 C-6.13803085 5.19642828 -5.76012724 3.26519086 -4.25 1 C-2.5 -0.125 -2.5 -0.125 0 0 Z " fill="#DE5557" transform="translate(160.5,100.125)"/>
<path d="M0 0 C-0.5259375 1.1446875 -0.5259375 1.1446875 -1.0625 2.3125 C-2.32360884 5.04759379 -2.32360884 5.04759379 -1 8 C-1.66 8 -2.32 8 -3 8 C-3 8.99 -3 9.98 -3 11 C-2.34 11 -1.68 11 -1 11 C-1 10.34 -1 9.68 -1 9 C-0.01 9 0.98 9 2 9 C2.33 8.01 2.66 7.02 3 6 C4.32 6.99 5.64 7.98 7 9 C6.23816406 9.35191406 5.47632813 9.70382813 4.69140625 10.06640625 C-9.51239275 16.85798555 -20.82354314 26.43670098 -29 40 C-30.27600824 36.12463692 -29.44330493 34.12103444 -27.65063477 30.46679688 C-27.29155029 29.77650391 -26.93246582 29.08621094 -26.5625 28.375 C-26.19632568 27.66150391 -25.83015137 26.94800781 -25.45288086 26.21289062 C-21.26159382 18.28076101 -10.23355495 0 0 0 Z " fill="#EE6B2E" transform="translate(159,69)"/>
<path d="M0 0 C2.64179275 3.19184343 4.14549017 6.41581339 5.6875 10.25 C6.12449219 11.32765625 6.56148437 12.4053125 7.01171875 13.515625 C7.50091797 14.74539062 7.50091797 14.74539062 8 16 C7.18917969 16.4125 6.37835938 16.825 5.54296875 17.25 C-10.83734213 25.7929328 -23.87801005 35.93061461 -32 53 C-32.33 51.68 -32.66 50.36 -33 49 C-34.485 49.495 -34.485 49.495 -36 50 C-30.7494417 35.69413101 -17.65993756 23.47652364 -4.30078125 16.61328125 C-2.21763198 15.68125999 -0.13620091 14.80173466 2 14 C0.68938409 9.76570244 -0.94356259 5.92592596 -3 2 C-2.34 2 -1.68 2 -1 2 C-0.67 1.34 -0.34 0.68 0 0 Z " fill="#F9F2E5" transform="translate(165,45)"/>
<path d="M0 0 C12.21 0 24.42 0 37 0 C37 0.99 37 1.98 37 3 C35.68 3 34.36 3 33 3 C33.66 3.99 34.32 4.98 35 6 C34.625 8.6875 34.625 8.6875 34 11 C33.01 10.67 32.02 10.34 31 10 C31.66 10 32.32 10 33 10 C32.65213292 8.02463255 32.65213292 8.02463255 32 6 C31.34 5.67 30.68 5.34 30 5 C30 8.63 30 12.26 30 16 C26.51236907 14.25618453 23.96631949 12.47193291 21 10 C22.0975223 7.00675737 22.67682892 6.15389099 25.625 4.75 C26.40875 4.5025 27.1925 4.255 28 4 C28 3.34 28 2.68 28 2 C25.03 2 22.06 2 19 2 C19 6.95 19 11.9 19 17 C18.34 17 17.68 17 17 17 C17 12.05 17 7.1 17 2 C14.36 2 11.72 2 9 2 C9.33 3.65 9.66 5.3 10 7 C10.639375 6.814375 11.27875 6.62875 11.9375 6.4375 C12.618125 6.293125 13.29875 6.14875 14 6 C14.33 6.33 14.66 6.66 15 7 C14.4 13.6 14.4 13.6 12 16 C9.1875 16.5 9.1875 16.5 6 16 C3.78822756 14.17887828 2.62678034 12.44017051 1 10 C1 9.01 1 8.02 1 7 C1.66 7 2.32 7 3 7 C3.99 8.98 4.98 10.96 6 13 C7.65 13 9.3 13 11 13 C11.66 11.35 12.32 9.7 13 8 C11.35 8.66 9.7 9.32 8 10 C7 9 7 9 6.9375 5.4375 C6.958125 4.303125 6.97875 3.16875 7 2 C4.69 2 2.38 2 0 2 C0 1.34 0 0.68 0 0 Z " fill="#6F6C6C" transform="translate(35,338)"/>
<path d="M0 0 C5.61 0 11.22 0 17 0 C17 0.99 17 1.98 17 3 C16.34 3 15.68 3 15 3 C15 7.29 15 11.58 15 16 C11.23801156 14.11900578 7.64081132 12.10046807 4 10 C4.125 8.1875 4.125 8.1875 5 6 C8.0625 4.25 8.0625 4.25 11 3 C7.7 2.67 4.4 2.34 1 2 C1 6.62 1 11.24 1 16 C0.67 16 0.34 16 0 16 C-0.07347656 14.96939453 -0.07347656 14.96939453 -0.1484375 13.91796875 C-0.22320312 13.01691406 -0.29796875 12.11585938 -0.375 11.1875 C-0.44460937 10.29417969 -0.51421875 9.40085937 -0.5859375 8.48046875 C-0.86645036 5.75601501 -0.86645036 5.75601501 -3 3 C-3.99 3 -4.98 3 -6 3 C-5.01 3.66 -4.02 4.32 -3 5 C-3.33 6.98 -3.66 8.96 -4 11 C-4.99 11.33 -5.98 11.66 -7 12 C-6.34 10.35 -5.68 8.7 -5 7 C-6.98 6.34 -8.96 5.68 -11 5 C-12.4783226 7.95664519 -12.06032783 10.74229737 -12 14 C-10.68 14.66 -9.36 15.32 -8 16 C-8 16.66 -8 17.32 -8 18 C-10.375 17.6875 -10.375 17.6875 -13 17 C-15.48386059 13.27420911 -15.3804212 11.41288598 -15 7 C-13.5 4.0625 -13.5 4.0625 -12 2 C-13.65 2 -15.3 2 -17 2 C-17 6.95 -17 11.9 -17 17 C-17.66 17 -18.32 17 -19 17 C-19 12.05 -19 7.1 -19 2 C-19.66 1.67 -20.32 1.34 -21 1 C-17.85418577 0.97111486 -14.70840531 0.95324077 -11.5625 0.9375 C-10.66466797 0.92912109 -9.76683594 0.92074219 -8.84179688 0.91210938 C-7.98779297 0.90888672 -7.13378906 0.90566406 -6.25390625 0.90234375 C-5.06776733 0.89448853 -5.06776733 0.89448853 -3.85766602 0.88647461 C-2 1 -2 1 -1 2 C-0.67 1.34 -0.34 0.68 0 0 Z " fill="#585556" transform="translate(131,338)"/>
<path d="M0 0 C3.375 -0.125 3.375 -0.125 7 0 C9 2 9 2 9 5 C16.92 5 24.84 5 33 5 C33 5.66 33 6.32 33 7 C32.34 7 31.68 7 31 7 C31 11.62 31 16.24 31 21 C30.34 21 29.68 21 29 21 C28.505 17.535 28.505 17.535 28 14 C27.34 14.66 26.68 15.32 26 16 C25.01 16 24.02 16 23 16 C23 15.01 23 14.02 23 13 C22.01 13 21.02 13 20 13 C20.66 15.31 21.32 17.62 22 20 C18.125 19.125 18.125 19.125 17 18 C16.8125 15.5625 16.8125 15.5625 17 13 C17.66 12.34 18.32 11.68 19 11 C21.00451121 11.30503431 23.00448218 11.64080679 25 12 C27.27650745 11.6422386 27.27650745 11.6422386 29 11 C29 9.68 29 8.36 29 7 C24.38 7 19.76 7 15 7 C15 11.95 15 16.9 15 22 C14.34 22 13.68 22 13 22 C13 17.05 13 12.1 13 7 C9.04 7 5.08 7 1 7 C1 10.96 1 14.92 1 19 C3.31 18.01 5.62 17.02 8 16 C8 15.01 8 14.02 8 13 C6.68 12.34 5.36 11.68 4 11 C5.65614657 10.61781233 7.32457024 10.28604898 9 10 C10 11 10 11 10.375 13.8125 C10 17 10 17 7.8125 19.375 C5 21 5 21 0 21 C-0.33 16.38 -0.66 11.76 -1 7 C-6.94 6.67 -12.88 6.34 -19 6 C-19 5.67 -19 5.34 -19 5 C-10.42 5 -1.84 5 7 5 C7 4.01 7 3.02 7 2 C4.36 2.33 1.72 2.66 -1 3 C-0.67 2.01 -0.34 1.02 0 0 Z " fill="#6E6C6C" transform="translate(195,333)"/>
<path d="M0 0 C0.33 0 0.66 0 1 0 C1.82927069 4.40900502 2.18231714 8.66603007 2.31640625 13.1484375 C2.33718735 13.80582916 2.35796844 14.46322083 2.37937927 15.14053345 C2.44420753 17.21859362 2.50344564 19.29676856 2.5625 21.375 C2.60574888 22.79298011 2.64936509 24.21094907 2.69335938 25.62890625 C2.80050355 29.0858222 2.90006973 32.54283804 3 36 C3.33 31.71 3.66 27.42 4 23 C4.33 23 4.66 23 5 23 C5 28.61 5 34.22 5 40 C3.41832031 40.04898438 1.83664063 40.09796875 0.20703125 40.1484375 C-15.98698003 40.68708842 -15.98698003 40.68708842 -32 43 C-32.93457031 43.185625 -33.86914062 43.37125 -34.83203125 43.5625 C-35.54746094 43.706875 -36.26289063 43.85125 -37 44 C-35.515 43.505 -35.515 43.505 -34 43 C-33.26676204 40.98491642 -33.26676204 40.98491642 -33 39 C-36.465 39.495 -36.465 39.495 -40 40 C-32.03164678 34.68776452 -21.56943298 35.7528687 -12.375 35.875 C-7.96125 35.91625 -3.5475 35.9575 1 36 C0.67 24.12 0.34 12.24 0 0 Z " fill="#F6DED7" transform="translate(211,36)"/>
<path d="M0 0 C0.66 0 1.32 0 2 0 C2.12375 0.804375 2.2475 1.60875 2.375 2.4375 C2.58125 3.283125 2.7875 4.12875 3 5 C3.66 5.33 4.32 5.66 5 6 C4.29875 6.99 3.5975 7.98 2.875 9 C-5.4362119 22.5915545 -7.21609004 36.33912479 -8 52 C-8.33 52 -8.66 52 -9 52 C-9.33 49.69 -9.66 47.38 -10 45 C-10.99 45.66 -11.98 46.32 -13 47 C-13.30380005 39.91856549 -12.30329211 33.98829457 -10.375 27.1875 C-10.10792236 26.22279785 -9.84084473 25.2580957 -9.56567383 24.26416016 C-7.71480979 17.83564028 -5.49752922 12.07699395 -2.19921875 6.2421875 C-1.07308762 4.13665242 -0.4567027 2.33187023 0 0 Z " fill="#F9EEE5" transform="translate(122,50)"/>
<path d="M0 0 C0.99 0 1.98 0 3 0 C4.49821059 3.37097383 5 5.20442119 5 9 C3.02 9.33 1.04 9.66 -1 10 C-1.33 10.99 -1.66 11.98 -2 13 C-8.27 13.66 -14.54 14.32 -21 15 C-21 14.34 -21 13.68 -21 13 C-21.99 13 -22.98 13 -24 13 C-24 14.98 -24 16.96 -24 19 C-24.99 18.67 -25.98 18.34 -27 18 C-26.67 16.35 -26.34 14.7 -26 13 C-26.99 13.495 -26.99 13.495 -28 14 C-30.6723621 14.13415472 -33.32250488 14.04318541 -36 14 C-36 13.01 -36 12.02 -36 11 C-28.25 9.875 -28.25 9.875 -26 11 C-26 10.34 -26 9.68 -26 9 C-25.34 9 -24.68 9 -24 9 C-24 9.66 -24 10.32 -24 11 C-21.69 11 -19.38 11 -17 11 C-17 10.34 -17 9.68 -17 9 C-13.37 9 -9.74 9 -6 9 C-6.33 8.01 -6.66 7.02 -7 6 C-6.1028125 6.4640625 -6.1028125 6.4640625 -5.1875 6.9375 C-2.91043228 8.10209704 -2.91043228 8.10209704 0 9 C0 7.68 0 6.36 0 5 C-1.65 5 -3.3 5 -5 5 C-5 4.67 -5 4.34 -5 4 C-3.35 4 -1.7 4 0 4 C0 2.68 0 1.36 0 0 Z " fill="#DA7475" transform="translate(166,114)"/>
<path d="M0 0 C6.6 0 13.2 0 20 0 C20 0.33 20 0.66 20 1 C17.03 1 14.06 1 11 1 C11.33 2.65 11.66 4.3 12 6 C12.99 5.34 13.98 4.68 15 4 C15.99 4 16.98 4 18 4 C18 7.63 18 11.26 18 15 C17.34 15 16.68 15 16 15 C16 12.36 16 9.72 16 7 C14.02 8.32 12.04 9.64 10 11 C9.34 8.69 8.68 6.38 8 4 C6.76732652 5.00836062 6.76732652 5.00836062 6.90234375 7.06640625 C6.91394531 7.89011719 6.92554688 8.71382813 6.9375 9.5625 C6.94652344 10.38878906 6.95554687 11.21507812 6.96484375 12.06640625 C6.97644531 12.70449219 6.98804688 13.34257812 7 14 C8.32 14.66 9.64 15.32 11 16 C9.1875 16.6875 9.1875 16.6875 7 17 C4.85533038 15.40962905 4.08453176 14.50173692 3.63671875 11.84375 C3.65347656 11.0703125 3.67023438 10.296875 3.6875 9.5 C3.69136719 8.7265625 3.69523437 7.953125 3.69921875 7.15625 C4 5 4 5 6 2 C4.68 2 3.36 2 2 2 C2 6.29 2 10.58 2 15 C1.34 15 0.68 15 0 15 C-0.4125 14.030625 -0.825 13.06125 -1.25 12.0625 C-2.64899168 8.87739901 -2.64899168 8.87739901 -5.1875 8.125 C-5.785625 8.08375 -6.38375 8.0425 -7 8 C-7 8.99 -7 9.98 -7 11 C-6.01 11.33 -5.02 11.66 -4 12 C-4 12.66 -4 13.32 -4 14 C-5.65 13.67 -7.3 13.34 -9 13 C-9 10.69 -9 8.38 -9 6 C-6.6875 5.375 -6.6875 5.375 -4 5 C-3.01 5.66 -2.02 6.32 -1 7 C-0.67 4.69 -0.34 2.38 0 0 Z " fill="#6E6C6C" transform="translate(267,339)"/>
<path d="M0 0 C10.76617635 -0.30406565 20.67022975 -0.48312079 31 3 C32.41345703 3.43505859 32.41345703 3.43505859 33.85546875 3.87890625 C40.29070951 6.00031665 45.56398518 8.97332236 51 13 C50.34 13.33 49.68 13.66 49 14 C46.875 13.0625 46.875 13.0625 45 12 C45.495 13.485 45.495 13.485 46 15 C46.66 15.33 47.32 15.66 48 16 C47.67 17.32 47.34 18.64 47 20 C46.56171875 19.56429687 46.1234375 19.12859375 45.671875 18.6796875 C38.16557547 11.63108916 28.80292978 5.78230986 18.25 5.9375 C17.05117187 5.95103516 17.05117187 5.95103516 15.828125 5.96484375 C14.92320312 5.98224609 14.92320312 5.98224609 14 6 C14 5.34 14 4.68 14 4 C15.98 4 17.96 4 20 4 C20 3.34 20 2.68 20 2 C13.4 1.67 6.8 1.34 0 1 C0 0.67 0 0.34 0 0 Z " fill="#FAF1E8" transform="translate(178,89)"/>
<path d="M0 0 C3.3 0 6.6 0 10 0 C12.19927162 3.5188346 13.28287602 6.13552041 12.9375 10.25 C12 14 12 14 10.125 15.5 C8 16 8 16 5 16 C4.34 13.03 3.68 10.06 3 7 C2.01 7 1.02 7 0 7 C0 8.32 0 9.64 0 11 C-2.31 10.67 -4.62 10.34 -7 10 C-6.67 8.68 -6.34 7.36 -6 6 C-3.69 5.34 -1.38 4.68 1 4 C0.67 2.68 0.34 1.36 0 0 Z " fill="#E4262F" transform="translate(166,107)"/>
<path d="M0 0 C1.60101563 0.22623047 1.60101563 0.22623047 3.234375 0.45703125 C4.31203125 0.59496094 5.3896875 0.73289063 6.5 0.875 C7.31984375 1.00519531 8.1396875 1.13539063 8.984375 1.26953125 C5.17407426 4.33321901 1.57165072 5.66398475 -3.015625 7.26953125 C-2.685625 7.59953125 -2.355625 7.92953125 -2.015625 8.26953125 C-1.77833686 14.79495498 -1.77833686 14.79495498 -3.015625 17.26953125 C-3.2431265 19.14009916 -3.42525311 21.01639083 -3.578125 22.89453125 C-3.70380859 24.39886719 -3.70380859 24.39886719 -3.83203125 25.93359375 C-3.89261719 26.70445312 -3.95320312 27.4753125 -4.015625 28.26953125 C-5.995625 28.26953125 -7.975625 28.26953125 -10.015625 28.26953125 C-9.025625 26.78453125 -9.025625 26.78453125 -8.015625 25.26953125 C-7.71465822 23.12820879 -7.71465822 23.12820879 -7.7421875 20.77734375 C-7.7215625 19.90722656 -7.7009375 19.03710938 -7.6796875 18.140625 C-7.65375829 16.3178016 -7.63546185 14.49485279 -7.625 12.671875 C-7.51504732 8.53643243 -7.31289337 5.83659533 -5.3671875 2.125 C-3.015625 0.26953125 -3.015625 0.26953125 0 0 Z " fill="#E2262F" transform="translate(163.015625,132.73046875)"/>
<path d="M0 0 C0 -0.33 0 -0.66 0 -1 C6.27 -1 12.54 -1 19 -1 C19 -0.01 19 0.98 19 2 C13.72 2 8.44 2 3 2 C3 2.66 3 3.32 3 4 C-1.17297747 7.26013865 -4.86040142 7.67367628 -10 8 C-12.5 7.5625 -12.5 7.5625 -14 7 C-12.73164821 3.05401664 -10.31064666 1.56019601 -6.8203125 -0.31640625 C-4.27830339 -1.27102341 -2.51232148 -0.91357145 0 0 Z " fill="#DF373F" transform="translate(175,125)"/>
<path d="M0 0 C5.94 0 11.88 0 18 0 C18 4.62 18 9.24 18 14 C17.67 14 17.34 14 17 14 C16.67 12.35 16.34 10.7 16 9 C15.1646875 10.2375 15.1646875 10.2375 14.3125 11.5 C12 14 12 14 9.5 14.625 C5.94668301 13.73667075 4.93281999 12.03728856 3 9 C2.25 6.6875 2.25 6.6875 2 5 C4.0245738 6.93254772 5.42105792 8.63158688 7 11 C9.58380177 11.25030977 9.58380177 11.25030977 12 11 C12.33 10.34 12.66 9.68 13 9 C12.21625 9.04125 11.4325 9.0825 10.625 9.125 C8 9 8 9 6 7 C6.375 4.375 6.375 4.375 7 2 C4.69 1.67 2.38 1.34 0 1 C0 0.67 0 0.34 0 0 Z " fill="#DDDDDD" transform="translate(94,340)"/>
<path d="M0 0 C11.88 0 23.76 0 36 0 C36 0.33 36 0.66 36 1 C30.39 1 24.78 1 19 1 C19 5.95 19 10.9 19 16 C18.34 16 17.68 16 17 16 C17 11.05 17 6.1 17 1 C14.36 1 11.72 1 9 1 C9.33 2.65 9.66 4.3 10 6 C10.639375 5.814375 11.27875 5.62875 11.9375 5.4375 C12.618125 5.293125 13.29875 5.14875 14 5 C14.33 5.33 14.66 5.66 15 6 C14.4 12.6 14.4 12.6 12 15 C9.1875 15.5 9.1875 15.5 6 15 C3.78822756 13.17887828 2.62678034 11.44017051 1 9 C1 8.01 1 7.02 1 6 C1.66 6 2.32 6 3 6 C3.99 7.98 4.98 9.96 6 12 C7.65 12 9.3 12 11 12 C11.66 10.35 12.32 8.7 13 7 C11.35 7.66 9.7 8.32 8 9 C7 8 7 8 6.9375 4.4375 C6.958125 3.303125 6.97875 2.16875 7 1 C4.69 1 2.38 1 0 1 C0 0.67 0 0.34 0 0 Z " fill="#4A4747" transform="translate(35,339)"/>
<path d="M0 0 C5.61 0 11.22 0 17 0 C17 0.99 17 1.98 17 3 C16.34 3 15.68 3 15 3 C15 7.29 15 11.58 15 16 C11.23801156 14.11900578 7.64081132 12.10046807 4 10 C4.125 8.1875 4.125 8.1875 5 6 C8.0625 4.25 8.0625 4.25 11 3 C7.37 3 3.74 3 0 3 C0 2.01 0 1.02 0 0 Z " fill="#595656" transform="translate(131,338)"/>
<path d="M0 0 C0.33 1.65 0.66 3.3 1 5 C7.27 5.33 13.54 5.66 20 6 C19.67 8.97 19.34 11.94 19 15 C18.34 15 17.68 15 17 15 C16.67 13.02 16.34 11.04 16 9 C14.73542969 9.11859375 13.47085938 9.2371875 12.16796875 9.359375 C10.50789887 9.49067996 8.84773722 9.62082823 7.1875 9.75 C6.35412109 9.83121094 5.52074219 9.91242188 4.66210938 9.99609375 C2.38089987 10.16100046 0.27233379 10.26500523 -2 10 C-4.59878194 7.71622193 -4.95308015 6.68815782 -5.1875 3.25 C-5.125625 2.5075 -5.06375 1.765 -5 1 C-3 0 -3 0 0 0 Z " fill="#E91E27" transform="translate(174,136)"/>
<path d="M0 0 C0.33 0 0.66 0 1 0 C1.33 1.65 1.66 3.3 2 5 C2.33 4.01 2.66 3.02 3 2 C4.65 2.33 6.3 2.66 8 3 C7.814375 3.70125 7.62875 4.4025 7.4375 5.125 C6.94843024 8.33888698 7.33768442 10.83560336 8 14 C6.68 13.34 5.36 12.68 4 12 C4 12.66 4 13.32 4 14 C4.639375 14.2475 5.27875 14.495 5.9375 14.75 C8 16 8 16 8.75 18.125 C8.87375 19.053125 8.87375 19.053125 9 20 C6.36 20 3.72 20 1 20 C0.202163 13.30386804 -0.12910853 6.74233419 0 0 Z " fill="#DC8389" transform="translate(144,129)"/>
<path d="M0 0 C0.66 0 1.32 0 2 0 C2 0.99 2 1.98 2 3 C3.32 3.66 4.64 4.32 6 5 C5.34773438 5.61746094 4.69546875 6.23492187 4.0234375 6.87109375 C-1.4663039 12.19079891 -6.09119259 17.42176313 -10 24 C-10.75851424 21.75549306 -11.13463131 20.43669167 -10.42675781 18.140625 C-10.10545898 17.51671875 -9.78416016 16.8928125 -9.453125 16.25 C-9.1025 15.5590625 -8.751875 14.868125 -8.390625 14.15625 C-7.82601562 13.08890625 -7.82601562 13.08890625 -7.25 12 C-6.70859375 10.93265625 -6.70859375 10.93265625 -6.15625 9.84375 C-2.51838126 2.77890346 -2.51838126 2.77890346 0 0 Z " fill="#EC6F33" transform="translate(140,85)"/>
<path d="M0 0 C0 1.32 0 2.64 0 4 C-1.32 4 -2.64 4 -4 4 C-4.33 4.66 -4.66 5.32 -5 6 C-5.804375 5.814375 -6.60875 5.62875 -7.4375 5.4375 C-8.283125 5.293125 -9.12875 5.14875 -10 5 C-11.58272601 6.58272601 -11.34735747 8.38034003 -11.5625 10.5625 C-11.64628906 11.38878906 -11.73007813 12.21507812 -11.81640625 13.06640625 C-11.87699219 13.70449219 -11.93757812 14.34257812 -12 15 C-12.33 14.34 -12.66 13.68 -13 13 C-15.01669827 11.86649466 -15.01669827 11.86649466 -17 11 C-17.43898196 7.22475519 -17.24783531 5.40715801 -15.25 2.125 C-10.36267442 -1.07055903 -5.68050025 -0.40769141 0 0 Z " fill="#F0F0F0" transform="translate(253,340)"/>
<path d="M0 0 C0.66 0.33 1.32 0.66 2 1 C2 1.66 2 2.32 2 3 C1.01 3.495 1.01 3.495 0 4 C4.29 4.33 8.58 4.66 13 5 C13 5.33 13 5.66 13 6 C11.20755859 6.36351563 11.20755859 6.36351563 9.37890625 6.734375 C1.101041 8.46385756 -6.34597744 10.30966769 -14 14 C-14.66 13.67 -15.32 13.34 -16 13 C-11.38583445 8.08814635 -6.06342069 3.03171034 0 0 Z " fill="#E42C35" transform="translate(161,85)"/>
<path d="M0 0 C3.63 0 7.26 0 11 0 C11.33 4.95 11.66 9.9 12 15 C11.34 15 10.68 15 10 15 C10 10.38 10 5.76 10 1 C7.69 1 5.38 1 3 1 C3 2.32 3 3.64 3 5 C3.639375 4.814375 4.27875 4.62875 4.9375 4.4375 C5.618125 4.293125 6.29875 4.14875 7 4 C7.33 4.33 7.66 4.66 8 5 C7.94921875 6.8125 7.94921875 6.8125 7.6875 9 C7.56955078 10.0828125 7.56955078 10.0828125 7.44921875 11.1875 C7.30097656 11.785625 7.15273437 12.38375 7 13 C4.12529507 14.43735246 2.18105412 14.38172649 -1 14 C-3.80519876 11.27061743 -5.4229284 8.89523329 -6 5 C-5.34 5 -4.68 5 -4 5 C-3.62875 5.969375 -3.2575 6.93875 -2.875 7.9375 C-1.28947638 11.31140969 -1.28947638 11.31140969 2.1875 11.875 C3.5796875 11.936875 3.5796875 11.936875 5 12 C5 10.35 5 8.7 5 7 C4.360625 7.185625 3.72125 7.37125 3.0625 7.5625 C2.381875 7.706875 1.70125 7.85125 1 8 C0 7 0 7 -0.0625 3.4375 C-0.041875 2.303125 -0.02125 1.16875 0 0 Z " fill="#6E6B6C" transform="translate(164,340)"/>
<path d="M0 0 C-1.22527029 4.05281712 -2.69880494 7.44360764 -5 11 C-5.66 10.34 -6.32 9.68 -7 9 C-7.2475 9.639375 -7.495 10.27875 -7.75 10.9375 C-9 13 -9 13 -11.125 13.75 C-12.053125 13.87375 -12.053125 13.87375 -13 14 C-11.5 11 -11.5 11 -10 8 C-12.33524782 10.25740623 -14.18705073 12.2805761 -16 15 C-16.99 14.67 -17.98 14.34 -19 14 C-14.86736171 8.52704659 -7.41009171 0 0 0 Z " fill="#E71E23" transform="translate(122,52)"/>
<path d="M0 0 C0.66 0 1.32 0 2 0 C2.12375 0.804375 2.2475 1.60875 2.375 2.4375 C2.58125 3.283125 2.7875 4.12875 3 5 C3.66 5.33 4.32 5.66 5 6 C4.67386719 6.49628906 4.34773438 6.99257813 4.01171875 7.50390625 C1.19308521 11.88567579 -1.08254414 16.15590098 -3 21 C-3.99 20.67 -4.98 20.34 -6 20 C-5.01797355 14.15405434 -3.87457804 9.24922947 -1 4 C-0.31363375 1.76474965 -0.31363375 1.76474965 0 0 Z " fill="#F9F4ED" transform="translate(122,50)"/>
<path d="M0 0 C2.31 0 4.62 0 7 0 C7.33 2.31 7.66 4.62 8 7 C9.65 6.67 11.3 6.34 13 6 C12.67 7.98 12.34 9.96 12 12 C9.1875 12.3125 9.1875 12.3125 6 12 C4.11400657 9.61107499 3 8.08148442 3 5 C2.01 5 1.02 5 0 5 C0 3.35 0 1.7 0 0 Z " fill="#F3F3F3" transform="translate(157,340)"/>
<path d="M0 0 C3.96 0 7.92 0 12 0 C12 0.33 12 0.66 12 1 C10.8553125 1.185625 10.8553125 1.185625 9.6875 1.375 C6.79732864 1.88102792 6.79732864 1.88102792 4 4 C5.32 4.66 6.64 5.32 8 6 C7.6875 7.875 7.6875 7.875 7 10 C4 12 4 12 0 12 C0 8.04 0 4.08 0 0 Z " fill="#F0F0F0" transform="translate(196,340)"/>
<path d="M0 0 C6.27 0 12.54 0 19 0 C19 0.33 19 0.66 19 1 C16.03 1 13.06 1 10 1 C10.33 2.65 10.66 4.3 11 6 C11.99 5.34 12.98 4.68 14 4 C14.99 4 15.98 4 17 4 C17 7.63 17 11.26 17 15 C16.34 15 15.68 15 15 15 C15 12.36 15 9.72 15 7 C13.02 8.32 11.04 9.64 9 11 C8 10 8 10 7.9375 6.4375 C7.958125 5.303125 7.97875 4.16875 8 3 C7.34 3 6.68 3 6 3 C6 2.34 6 1.68 6 1 C4.02 1 2.04 1 0 1 C0 0.67 0 0.34 0 0 Z " fill="#454142" transform="translate(268,339)"/>
<path d="M0 0 C0.99 0.33 1.98 0.66 3 1 C2.34 1 1.68 1 1 1 C1 5.62 1 10.24 1 15 C0.34 15 -0.32 15 -1 15 C-1.33 12.69 -1.66 10.38 -2 8 C-2.66 8.66 -3.32 9.32 -4 10 C-4.99 10 -5.98 10 -7 10 C-7 9.01 -7 8.02 -7 7 C-7.99 7 -8.98 7 -10 7 C-9.34 9.31 -8.68 11.62 -8 14 C-11.875 13.125 -11.875 13.125 -13 12 C-13.1875 9.5625 -13.1875 9.5625 -13 7 C-12.34 6.34 -11.68 5.68 -11 5 C-8.99548879 5.30503431 -6.99551782 5.64080679 -5 6 C-2.72349255 5.6422386 -2.72349255 5.6422386 -1 5 C-0.67 3.35 -0.34 1.7 0 0 Z " fill="#484546" transform="translate(225,339)"/>
<path d="M0 0 C0.78503906 0.08507812 1.57007812 0.17015625 2.37890625 0.2578125 C4.4375 0.875 4.4375 0.875 6.4375 3.875 C3.1375 3.545 -0.1625 3.215 -3.5625 2.875 C-4.2225 4.195 -4.8825 5.515 -5.5625 6.875 C8.2975 6.875 22.1575 6.875 36.4375 6.875 C36.4375 7.205 36.4375 7.535 36.4375 7.875 C22.2475 7.875 8.0575 7.875 -6.5625 7.875 C-7.5625 2.875 -7.5625 2.875 -6.41015625 1.0546875 C-4.02556851 -0.46781884 -2.78249858 -0.35755336 0 0 Z " fill="#8D8A8A" transform="translate(86.5625,331.125)"/>
<path d="M0 0 C3.96 0 7.92 0 12 0 C12 2.31 12 4.62 12 7 C11.4225 6.67 10.845 6.34 10.25 6 C7.80116138 4.72924102 7.80116138 4.72924102 4 5 C3.896875 5.7425 3.79375 6.485 3.6875 7.25 C3 10 3 10 0 14 C0 9.38 0 4.76 0 0 Z " fill="#F3F3F3" transform="translate(255,340)"/>
<path d="M0 0 C4.62 0 9.24 0 14 0 C14 1.32 14 2.64 14 4 C10.15227951 5.86889281 8.11624675 6.00124921 4 5 C3.01 5.495 3.01 5.495 2 6 C1.53476937 7.89533342 1.53476937 7.89533342 1.375 10.0625 C1.25125 11.361875 1.1275 12.66125 1 14 C0.67 14 0.34 14 0 14 C0 9.38 0 4.76 0 0 Z " fill="#EFEEEE" transform="translate(210,340)"/>
<path d="M0 0 C0.33 0 0.66 0 1 0 C1 4.29 1 8.58 1 13 C-3 11 -7 9 -11 7 C-11 6.01 -11 5.02 -11 4 C-9.9275 3.855625 -8.855 3.71125 -7.75 3.5625 C-5.08337051 3.16250558 -2.58600271 2.72408076 0 2 C0 1.34 0 0.68 0 0 Z " fill="#595657" transform="translate(93,341)"/>
<path d="M0 0 C1.16595703 0.0628418 1.16595703 0.0628418 2.35546875 0.12695312 C3.54462891 0.16079102 3.54462891 0.16079102 4.7578125 0.1953125 C6.70784495 0.25404842 8.65690187 0.34372659 10.60546875 0.43945312 C9.61546875 0.93445313 9.61546875 0.93445313 8.60546875 1.43945312 C8.60546875 3.41945313 8.60546875 5.39945312 8.60546875 7.43945312 C7.94546875 7.10945313 7.28546875 6.77945312 6.60546875 6.43945312 C6.93546875 5.11945313 7.26546875 3.79945313 7.60546875 2.43945312 C5.68793922 2.4997528 3.77129449 2.58862019 1.85546875 2.68945312 C0.25445312 2.7590625 0.25445312 2.7590625 -1.37890625 2.83007812 C-4.9683724 3.55541066 -6.19693008 4.55477379 -8.39453125 7.43945312 C-8.97835085 10.52452762 -8.97835085 10.52452762 -8.39453125 13.43945312 C-7.40453125 14.09945313 -6.41453125 14.75945312 -5.39453125 15.43945312 C-5.39453125 16.09945313 -5.39453125 16.75945312 -5.39453125 17.43945312 C-7.92500325 17.10205686 -9.07638755 16.83334533 -10.70703125 14.81445312 C-11.70974902 11.35051902 -11.25033207 8.92378504 -10.39453125 5.43945312 C-7.61586261 0.45800573 -5.35134269 -0.11434493 0 0 Z " fill="#787677" transform="translate(245.39453125,337.560546875)"/>
<path d="M0 0 C2.60025916 0.91009071 3.76626458 1.77626765 5.5 3.875 C5.17 4.535 4.84 5.195 4.5 5.875 C3.51 5.875 2.52 5.875 1.5 5.875 C0.84 7.195 0.18 8.515 -0.5 9.875 C-2.5 9.20833333 -4.5 8.54166667 -6.5 7.875 C-6.13803085 5.19642828 -5.76012724 3.26519086 -4.25 1 C-2.5 -0.125 -2.5 -0.125 0 0 Z " fill="#DD262D" transform="translate(160.5,100.125)"/>
<path d="M0 0 C0.66 0 1.32 0 2 0 C2 0.99 2 1.98 2 3 C2.66 3 3.32 3 4 3 C4.86883706 4.57533086 5.71959068 6.16064509 6.5625 7.75 C7.03816406 8.63171875 7.51382813 9.5134375 8.00390625 10.421875 C9.07998186 13.20701188 9.06528748 14.26980214 8 17 C7.34 15.68 6.68 14.36 6 13 C6 18.61 6 24.22 6 30 C5.34 30 4.68 30 4 30 C3.96261719 28.75605469 3.92523438 27.51210937 3.88671875 26.23046875 C3.5497439 17.13945348 3.09291681 8.65627661 0 0 Z " fill="#ED7B40" transform="translate(201,104)"/>
<path d="M0 0 C1.92004429 0.2457473 3.83824911 0.50890434 5.75 0.8125 C1.93969926 3.87618776 -1.66272428 5.2069535 -6.25 6.8125 C-5.92 7.1425 -5.59 7.4725 -5.25 7.8125 C-5.20907063 10.14547433 -5.20758277 12.47955225 -5.25 14.8125 C-5.58 14.8125 -5.91 14.8125 -6.25 14.8125 C-6.25 12.8325 -6.25 10.8525 -6.25 8.8125 C-7.24 8.8125 -8.23 8.8125 -9.25 8.8125 C-10 7.125 -10 7.125 -10.25 4.8125 C-7.99257379 -0.53403577 -5.28571042 -0.44931659 0 0 Z " fill="#E42A35" transform="translate(166.25,133.1875)"/>
<path d="M0 0 C0.99 0.33 1.98 0.66 3 1 C2.34 1 1.68 1 1 1 C1 5.62 1 10.24 1 15 C0.34 15 -0.32 15 -1 15 C-1.185625 13.2984375 -1.185625 13.2984375 -1.375 11.5625 C-1.58125 10.386875 -1.7875 9.21125 -2 8 C-2.66 7.67 -3.32 7.34 -4 7 C-4.33 7.99 -4.66 8.98 -5 10 C-5.66 10 -6.32 10 -7 10 C-7.33 9.34 -7.66 8.68 -8 8 C-8.66 8 -9.32 8 -10 8 C-10 9.32 -10 10.64 -10 12 C-9.34 12.66 -8.68 13.32 -8 14 C-11.875 13.125 -11.875 13.125 -13 12 C-13.1875 9.5625 -13.1875 9.5625 -13 7 C-12.34 6.34 -11.68 5.68 -11 5 C-9.328451 5.30791692 -7.66194453 5.64386903 -6 6 C-4.66018514 5.6937566 -3.32488113 5.36548445 -2 5 C-1.34 5.33 -0.68 5.66 0 6 C0 4.02 0 2.04 0 0 Z " fill="#484546" transform="translate(254,339)"/>
<path d="M0 0 C2.0625 0.4375 2.0625 0.4375 4 1 C4 1.99 4 2.98 4 4 C3.34 4 2.68 4 2 4 C2 3.34 2 2.68 2 2 C1.34 2 0.68 2 0 2 C0.33 2.99 0.66 3.98 1 5 C2.98 5 4.96 5 7 5 C7.36075949 9.44936709 7.36075949 9.44936709 5.8125 11.8125 C3.28374096 13.46927316 1.966479 13.57882517 -1 13 C-3.75615725 10.24384275 -5.42444124 7.88502164 -6 4 C-3.9754262 5.93254772 -2.57894208 7.63158688 -1 10 C1.58380177 10.25030977 1.58380177 10.25030977 4 10 C4.33 9.34 4.66 8.68 5 8 C4.21625 8.04125 3.4325 8.0825 2.625 8.125 C0 8 0 8 -2 6 C-1.44444444 1.44444444 -1.44444444 1.44444444 0 0 Z " fill="#666364" transform="translate(102,341)"/>
<path d="M0 0 C2.64 0 5.28 0 8 0 C7.67 1.98 7.34 3.96 7 6 C8.98 6.66 10.96 7.32 13 8 C12.67 8.99 12.34 9.98 12 11 C9.8125 11.4375 9.8125 11.4375 7 11 C4.97717271 8.81862679 3.5891716 6.54267456 2 4 C1.67 6.97 1.34 9.94 1 13 C0.67 13 0.34 13 0 13 C0 8.71 0 4.42 0 0 Z " fill="#F3F3F3" transform="translate(94,341)"/>
<path d="M0 0 C0.33 0 0.66 0 1 0 C1.33 1.65 1.66 3.3 2 5 C2.639375 4.814375 3.27875 4.62875 3.9375 4.4375 C4.618125 4.293125 5.29875 4.14875 6 4 C6.33 4.33 6.66 4.66 7 5 C6.4 11.6 6.4 11.6 4 14 C1.1875 14.5 1.1875 14.5 -2 14 C-4.21177244 12.17887828 -5.37321966 10.44017051 -7 8 C-7 7.01 -7 6.02 -7 5 C-6.34 5 -5.68 5 -5 5 C-4.01 6.98 -3.02 8.96 -2 11 C-0.35 11 1.3 11 3 11 C3.66 9.35 4.32 7.7 5 6 C3.35 6.66 1.7 7.32 0 8 C-1 7 -1 7 -1.125 4 C-1 1 -1 1 0 0 Z " fill="#514E4F" transform="translate(43,340)"/>
<path d="M0 0 C1.98 0 3.96 0 6 0 C6 1.98 6 3.96 6 6 C7.32 6.33 8.64 6.66 10 7 C9.67 8.32 9.34 9.64 9 11 C7.125 10.6875 7.125 10.6875 5 10 C4.34 9.01 3.68 8.02 3 7 C2.34 8.98 1.68 10.96 1 13 C0.67 13 0.34 13 0 13 C0 8.71 0 4.42 0 0 Z " fill="#F3F3F3" transform="translate(176,341)"/>
<path d="M0 0 C0.33 1.32 0.66 2.64 1 4 C0.34 4 -0.32 4 -1 4 C-1 6.31 -1 8.62 -1 11 C0.794375 10.9690625 0.794375 10.9690625 2.625 10.9375 C6.18004869 10.93117429 9.50555624 11.30111125 13 12 C13 12.33 13 12.66 13 13 C8.05 13 3.1 13 -2 13 C-2 11.02 -2 9.04 -2 7 C-3.32 7.33 -4.64 7.66 -6 8 C-6 7.34 -6 6.68 -6 6 C-10.455 5.01 -10.455 5.01 -15 4 C-12.16466071 3.29116518 -9.79342023 2.83213409 -6.9375 2.5625 C-2.95669102 2.28273409 -2.95669102 2.28273409 0 0 Z " fill="#E79394" transform="translate(176,129)"/>
<path d="M0 0 C0 0.33 0 0.66 0 1 C-2.64 1.66 -5.28 2.32 -8 3 C-5.03 3.33 -2.06 3.66 1 4 C1 4.33 1 4.66 1 5 C-0.32064453 5.19916016 -0.32064453 5.19916016 -1.66796875 5.40234375 C-2.82941406 5.57894531 -3.99085938 5.75554687 -5.1875 5.9375 C-6.91033203 6.19853516 -6.91033203 6.19853516 -8.66796875 6.46484375 C-11.46325212 6.91379313 -14.22933586 7.42082162 -17 8 C-16.01 7.67 -15.02 7.34 -14 7 C-13.26676204 4.98491642 -13.26676204 4.98491642 -13 3 C-15.31 3.33 -17.62 3.66 -20 4 C-14.15241063 0.10160709 -6.89388918 -0.29973431 0 0 Z " fill="#F4D3C7" transform="translate(191,72)"/>
<path d="M0 0 C0.99 0.33 1.98 0.66 3 1 C2.34 1 1.68 1 1 1 C1 5.62 1 10.24 1 15 C-2 11 -2 11 -2 9 C-3.65 8.67 -5.3 8.34 -7 8 C-7 8.99 -7 9.98 -7 11 C-6.34 11.33 -5.68 11.66 -5 12 C-5 12.66 -5 13.32 -5 14 C-8.875 13.125 -8.875 13.125 -10 12 C-10.1875 9.5625 -10.1875 9.5625 -10 7 C-9.34 6.34 -8.68 5.68 -8 5 C-4.70285207 5.32971479 -3.3773161 5.6226839 -1 8 C-0.67 5.36 -0.34 2.72 0 0 Z " fill="#494647" transform="translate(298,339)"/>
<path d="M0 0 C3.00024947 -0.05444001 5.99949039 -0.0938836 9 -0.125 C9.83917969 -0.14175781 10.67835938 -0.15851563 11.54296875 -0.17578125 C17.05254877 -0.21849117 21.71048292 0.44497993 27 2 C26.67 3.32 26.34 4.64 26 6 C22.04 6 18.08 6 14 6 C14 5.34 14 4.68 14 4 C15.98 4 17.96 4 20 4 C20 3.34 20 2.68 20 2 C13.4 1.67 6.8 1.34 0 1 C0 0.67 0 0.34 0 0 Z " fill="#F9DDD9" transform="translate(178,89)"/>
<path d="M0 0 C2.64 0 5.28 0 8 0 C8 4.29 8 8.58 8 13 C7.01 12.67 6.02 12.34 5 12 C5 9.69 5 7.38 5 5 C3.35 5.33 1.7 5.66 0 6 C0 4.02 0 2.04 0 0 Z " fill="#EFEFEF" transform="translate(44,340)"/>
<path d="M0 0 C2.31 0 4.62 0 7 0 C8.24546405 2.49092811 7.7767578 3.41080733 7 6 C8.65 5.67 10.3 5.34 12 5 C12.125 7.875 12.125 7.875 12 11 C10 13 10 13 7.5625 13.3125 C4.60720543 12.95209822 3.81112073 12.28773145 2 10 C2.33 9.01 2.66 8.02 3 7 C3.433125 7.66 3.86625 8.32 4.3125 9 C5.1478125 9.99 5.1478125 9.99 6 11 C6.99 11 7.98 11 9 11 C9.33 10.01 9.66 9.02 10 8 C8.35 7.67 6.7 7.34 5 7 C5.33 5.02 5.66 3.04 6 1 C4.02 1 2.04 1 0 1 C0 0.67 0 0.34 0 0 Z " fill="#5B5859" transform="translate(176,340)"/>
<path d="M0 0 C7.11513755 -0.53699151 12.44995746 1.30292366 19 4 C19 4.33 19 4.66 19 5 C12.375 4.25 12.375 4.25 9 2 C9 2.99 9 3.98 9 5 C8.01 5.495 8.01 5.495 7 6 C6.67 6.66 6.34 7.32 6 8 C4.02 5.36 2.04 2.72 0 0 Z " fill="#EE9E38" transform="translate(193,94)"/>
<path d="M0 0 C3.96 0 7.92 0 12 0 C8 3 8 3 5.875 4 C3.66622819 4.98810386 3.66622819 4.98810386 2 8 C1.60986284 9.9896995 1.26797351 11.99019869 1 14 C0.67 14 0.34 14 0 14 C0 9.38 0 4.76 0 0 Z " fill="#DCDBDC" transform="translate(132,340)"/>
<path d="M0 0 C2.5 0.3125 2.5 0.3125 5.5 2.3125 C5.79296875 5.3515625 5.79296875 5.3515625 5.6875 8.9375 C5.66042969 10.12601562 5.63335937 11.31453125 5.60546875 12.5390625 C5.57066406 13.45429688 5.53585938 14.36953125 5.5 15.3125 C5.17 15.3125 4.84 15.3125 4.5 15.3125 C4.42652344 14.28189453 4.42652344 14.28189453 4.3515625 13.23046875 C4.23941406 11.87888672 4.23941406 11.87888672 4.125 10.5 C4.05539063 9.60667969 3.98578125 8.71335937 3.9140625 7.79296875 C3.63354964 5.06851501 3.63354964 5.06851501 1.5 2.3125 C0.51 2.3125 -0.48 2.3125 -1.5 2.3125 C-0.51 2.9725 0.48 3.6325 1.5 4.3125 C1.17 6.2925 0.84 8.2725 0.5 10.3125 C-0.49 10.6425 -1.48 10.9725 -2.5 11.3125 C-1.84 9.6625 -1.18 8.0125 -0.5 6.3125 C-2.15 5.3225 -3.8 4.3325 -5.5 3.3125 C-3.71539237 1.05825878 -2.90780894 0.36347612 0 0 Z " fill="#514E4E" transform="translate(126.5,338.6875)"/>
<path d="M0 0 C0.68359375 1.734375 0.68359375 1.734375 1 4 C-0.21484375 6.140625 -0.21484375 6.140625 -1.9375 8.25 C-2.50339844 8.95640625 -3.06929687 9.6628125 -3.65234375 10.390625 C-4.31943359 11.18726563 -4.31943359 11.18726563 -5 12 C-5.33 11.34 -5.66 10.68 -6 10 C-6.66 9.67 -7.32 9.34 -8 9 C-7.67 7.02 -7.34 5.04 -7 3 C-3.535 2.505 -3.535 2.505 0 2 C0 1.34 0 0.68 0 0 Z " fill="#F9F4ED" transform="translate(200,142)"/>
<path d="M0 0 C3.96 0 7.92 0 12 0 C5.33333333 5 5.33333333 5 1 5 C1 8.3 1 11.6 1 15 C0.34 14.67 -0.32 14.34 -1 14 C-0.67 9.38 -0.34 4.76 0 0 Z " fill="#D9D8D8" transform="translate(80,340)"/>
<path d="M0 0 C2.4375 1.5 2.4375 1.5 4 3 C3.67 3.66 3.34 4.32 3 5 C2.01 4.34 1.02 3.68 0 3 C-3.12521833 2.83300768 -3.12521833 2.83300768 -6 3 C-6.66 4.32 -7.32 5.64 -8 7 C-2.39 7 3.22 7 9 7 C9 7.33 9 7.66 9 8 C3.06 8 -2.88 8 -9 8 C-10 3 -10 3 -9 1.1875 C-5.9143889 -0.64458159 -3.51231213 -0.36971707 0 0 Z " fill="#737171" transform="translate(165,331)"/>
<path d="M0 0 C0.99 0 1.98 0 3 0 C4.49821059 3.37097383 5 5.20442119 5 9 C2.69 9.66 0.38 10.32 -2 11 C-2.33 10.34 -2.66 9.68 -3 9 C-2.01 9 -1.02 9 0 9 C0 7.68 0 6.36 0 5 C-1.65 5 -3.3 5 -5 5 C-5 4.67 -5 4.34 -5 4 C-3.35 4 -1.7 4 0 4 C0 2.68 0 1.36 0 0 Z " fill="#E86E70" transform="translate(166,114)"/>
<path d="M0 0 C0.144375 0.78375 0.28875 1.5675 0.4375 2.375 C0.87798925 4.96421018 0.87798925 4.96421018 2 7 C1.01 7.495 1.01 7.495 0 8 C2.97 8.495 2.97 8.495 6 9 C6 9.33 6 9.66 6 10 C-1.42309859 10.48676056 -1.42309859 10.48676056 -4 8.3125 C-5.13489245 5.6880612 -5.23590819 3.83089822 -5 1 C-3 0 -3 0 0 0 Z " fill="#D8474A" transform="translate(174,136)"/>
<path d="M0 0 C0.33 0.99 0.66 1.98 1 3 C3.64 3 6.28 3 9 3 C9 3.33 9 3.66 9 4 C6.69 4 4.38 4 2 4 C2 8.95 2 13.9 2 19 C1.34 19 0.68 19 0 19 C0 14.05 0 9.1 0 4 C-0.66 4 -1.32 4 -2 4 C-2 3.34 -2 2.68 -2 2 C-1.34 2 -0.68 2 0 2 C0 1.34 0 0.68 0 0 Z " fill="#595657" transform="translate(155,336)"/>
<path d="M0 0 C6.6 0 13.2 0 20 0 C20 2.64 20 5.28 20 8 C19.34 7.34 18.68 6.68 18 6 C18.375 3.375 18.375 3.375 19 1 C17.06183265 1.1141866 15.12444901 1.24173423 13.1875 1.375 C12.10855469 1.44460938 11.02960938 1.51421875 9.91796875 1.5859375 C6.81373814 1.81195733 6.81373814 1.81195733 4 4 C2.67432801 4.68177416 1.34246312 5.35191436 0 6 C0 4.02 0 2.04 0 0 Z " fill="#DFDEDE" transform="translate(278,340)"/>
<path d="M0 0 C0 2.64 0 5.28 0 8 C-0.66 8 -1.32 8 -2 8 C-2.33 7.01 -2.66 6.02 -3 5 C-5.01508358 4.26676204 -5.01508358 4.26676204 -7 4 C-7.33 5.32 -7.66 6.64 -8 8 C-9 7 -9 7 -9.0625 4.4375 C-9.041875 3.633125 -9.02125 2.82875 -9 2 C-3.375 0 -3.375 0 0 0 Z " fill="#F5EAE9" transform="translate(154,127)"/>
<path d="M0 0 C0.66 0.33 1.32 0.66 2 1 C2 3.64 2 6.28 2 9 C-1.51716303 9 -2.37121748 8.17554415 -5 6 C-3.63016497 2.83884224 -3.0109362 2.0072908 0 0 Z " fill="#636061" transform="translate(61,342)"/>
<path d="M0 0 C2.31 0 4.62 0 7 0 C7 4.62 7 9.24 7 14 C6.67 14 6.34 14 6 14 C5.67 12.02 5.34 10.04 5 8 C4.67 9.98 4.34 11.96 4 14 C3.34 13.67 2.68 13.34 2 13 C2.33 9.7 2.66 6.4 3 3 C2.01 2.67 1.02 2.34 0 2 C0 1.34 0 0.68 0 0 Z " fill="#B7B6B6" transform="translate(188,340)"/>
<path d="M0 0 C2.31 0 4.62 0 7 0 C5.52307692 5.66153846 5.52307692 5.66153846 2.875 7.375 C1.946875 7.684375 1.946875 7.684375 1 8 C0 7 0 7 -0.0625 3.4375 C-0.041875 2.303125 -0.02125 1.16875 0 0 Z " fill="#F8FCFB" transform="translate(155,128)"/>
<path d="M0 0 C0.33 0.66 0.66 1.32 1 2 C-2.4766338 4.14336161 -5.21229195 4.21277626 -9.25 4.125 C-10.32765625 4.10695313 -11.4053125 4.08890625 -12.515625 4.0703125 C-13.33546875 4.04710938 -14.1553125 4.02390625 -15 4 C-10.8553972 -0.56028568 -5.89264765 -0.14030113 0 0 Z " fill="#FCFCF9" transform="translate(197,72)"/>
<path d="M0 0 C0.66 0 1.32 0 2 0 C1.67 1.65 1.34 3.3 1 5 C-2.63 5 -6.26 5 -10 5 C-10 4.01 -10 3.02 -10 2 C-2.25 0.875 -2.25 0.875 0 2 C0 1.34 0 0.68 0 0 Z " fill="#DF3D46" transform="translate(140,123)"/>
<path d="M0 0 C2.00720923 0.28674418 4.0085944 0.61866701 6 1 C6.33 1.99 6.66 2.98 7 4 C7.66 4 8.32 4 9 4 C9 5.65 9 7.3 9 9 C8.4225 8.195625 7.845 7.39125 7.25 6.5625 C5.01873107 4.02133261 4.25543229 3.34879632 1 3 C1 3.99 1 4.98 1 6 C1.99 6.33 2.98 6.66 4 7 C4 7.66 4 8.32 4 9 C2.35 8.67 0.7 8.34 -1 8 C-1.04241723 5.66705225 -1.04092937 3.33297433 -1 1 C-0.67 0.67 -0.34 0.34 0 0 Z " fill="#4B4748" transform="translate(259,344)"/>
<path d="M0 0 C2.97 0 5.94 0 9 0 C9 0.66 9 1.32 9 2 C7.02678947 3.3726682 5.02456848 4.70427617 3 6 C2.34 6.66 1.68 7.32 1 8 C-0.35439668 5.29120665 -0.06501451 2.99066732 0 0 Z " fill="#E7E6E6" transform="translate(54,340)"/>
<path d="M0 0 C0.33 0 0.66 0 1 0 C1 4.29 1 8.58 1 13 C-2.11089621 11.44455189 -5.03851491 9.80979645 -8 8 C-7.67 7.01 -7.34 6.02 -7 5 C-4.525 6.98 -4.525 6.98 -2 9 C-1.34 6.03 -0.68 3.06 0 0 Z " fill="#4E4B4B" transform="translate(145,341)"/>
<path d="M0 0 C0 3.63 0 7.26 0 11 C-2 10 -4 9 -6 8 C-6 7.34 -6 6.68 -6 6 C-5.01 6.33 -4.02 6.66 -3 7 C-3 5.35 -3 3.7 -3 2 C-4.32 1.67 -5.64 1.34 -7 1 C-2.25 0 -2.25 0 0 0 Z " fill="#E5B1AF" transform="translate(154,135)"/>
<path d="M0 0 C3.96 0 7.92 0 12 0 C12 0.33 12 0.66 12 1 C11.2575 1.103125 10.515 1.20625 9.75 1.3125 C6.82169457 2.04457636 5.30419624 3.10726738 3 5 C2.67 5 2.34 5 2 5 C1.67 7.31 1.34 9.62 1 12 C0.67 12 0.34 12 0 12 C0 8.04 0 4.08 0 0 Z " fill="#D9D8D8" transform="translate(196,340)"/>
<path d="M0 0 C2.625 0.375 2.625 0.375 5 1 C5 1.99 5 2.98 5 4 C5.66 4.33 6.32 4.66 7 5 C6.01 5 5.02 5 4 5 C4 4.01 4 3.02 4 2 C3.01 2 2.02 2 1 2 C1.66 4.31 2.32 6.62 3 9 C-0.875 8.125 -0.875 8.125 -2 7 C-2.1875 4.5625 -2.1875 4.5625 -2 2 C-1.34 1.34 -0.68 0.68 0 0 Z " fill="#534F50" transform="translate(214,344)"/>
<path d="M0 0 C1.98 0 3.96 0 6 0 C5.67 2.97 5.34 5.94 5 9 C4.34 9 3.68 9 3 9 C2.67 7.02 2.34 5.04 2 3 C-0.31 3 -2.62 3 -5 3 C-5 2.67 -5 2.34 -5 2 C-3.35 1.67 -1.7 1.34 0 1 C0 0.67 0 0.34 0 0 Z " fill="#DD444E" transform="translate(188,142)"/>
<path d="M0 0 C-0.33 1.32 -0.66 2.64 -1 4 C-1.825 3.7525 -2.65 3.505 -3.5 3.25 C-7.74550629 2.94674955 -9.55716688 4.07709484 -13.0703125 6.28515625 C-15 7 -15 7 -17.2421875 6.12109375 C-17.82226562 5.75113281 -18.40234375 5.38117188 -19 5 C-18.030625 4.87625 -17.06125 4.7525 -16.0625 4.625 C-15.051875 4.41875 -14.04125 4.2125 -13 4 C-12.67 3.34 -12.34 2.68 -12 2 C-10.0390625 1.3671875 -10.0390625 1.3671875 -7.625 0.875 C-6.83351562 0.70742187 -6.04203125 0.53984375 -5.2265625 0.3671875 C-3 0 -3 0 0 0 Z " fill="#F2CDCC" transform="translate(177,122)"/>
<path d="M0 0 C2.0625 0.4375 2.0625 0.4375 4 1 C4 1.99 4 2.98 4 4 C3.34 4 2.68 4 2 4 C2 3.34 2 2.68 2 2 C1.34 2 0.68 2 0 2 C0.33 2.99 0.66 3.98 1 5 C2.65 5 4.3 5 6 5 C6 5.66 6 6.32 6 7 C3.125 7.625 3.125 7.625 0 8 C-0.66 7.34 -1.32 6.68 -2 6 C-1.44444444 1.44444444 -1.44444444 1.44444444 0 0 Z " fill="#514D4E" transform="translate(102,341)"/>
<path d="M0 0 C0.33 0.99 0.66 1.98 1 3 C4.96 3 8.92 3 13 3 C13 3.33 13 3.66 13 4 C9.04 4 5.08 4 1 4 C1 8.62 1 13.24 1 18 C0.67 18 0.34 18 0 18 C0 13.38 0 8.76 0 4 C-0.66 4 -1.32 4 -2 4 C-2 3.34 -2 2.68 -2 2 C-1.34 2 -0.68 2 0 2 C0 1.34 0 0.68 0 0 Z " fill="#3E3A3B" transform="translate(79,336)"/>
<path d="M0 0 C1.64528614 3.12752591 2.91702499 6.3053057 4.125 9.625 C4.47820312 10.58664063 4.83140625 11.54828125 5.1953125 12.5390625 C6 15 6 15 6 17 C5.34 17 4.68 17 4 17 C4 16.01 4 15.02 4 14 C3.01 14 2.02 14 1 14 C0.22887459 9.27685687 -0.09764874 4.78478822 0 0 Z " fill="#E13742" transform="translate(109,116)"/>
<path d="M0 0 C2.51083114 1.25541557 2.87125446 2.50063488 4 5 C4.66 4.67 5.32 4.34 6 4 C5.67 7.3 5.34 10.6 5 14 C3 13 3 13 2.1484375 11.07421875 C1.89320312 10.28660156 1.63796875 9.49898437 1.375 8.6875 C0.98441406 7.51767578 0.98441406 7.51767578 0.5859375 6.32421875 C0 4 0 4 0 0 Z " fill="#EDA851" transform="translate(115,112)"/>
<path d="M0 0 C0.33 0 0.66 0 1 0 C1.33 5.61 1.66 11.22 2 17 C1.34 17 0.68 17 0 17 C-0.38855926 14.5431099 -0.76130088 12.08558167 -1.125 9.625 C-1.23714844 8.92632812 -1.34929687 8.22765625 -1.46484375 7.5078125 C-1.72816466 5.68212086 -1.8718116 3.8401238 -2 2 C-1.34 1.34 -0.68 0.68 0 0 Z " fill="#EA6B2D" transform="translate(210,36)"/>
<path d="M0 0 C1.67542976 0.28604898 3.34385343 0.61781233 5 1 C5.3125 3.75 5.3125 3.75 5 7 C2.44065969 9.77871234 0.97719051 10.91313862 -2.8125 11.25 C-3.534375 11.1675 -4.25625 11.085 -5 11 C-3.37633534 7.75267068 -0.24612161 7.29844864 3 6 C3 5.01 3 4.02 3 3 C1.68 2.34 0.36 1.68 -1 1 C-0.67 0.67 -0.34 0.34 0 0 Z " fill="#575455" transform="translate(200,343)"/>
<path d="M0 0 C0.33 0.99 0.66 1.98 1 3 C1.66 3.33 2.32 3.66 3 4 C1.02 6.97 -0.96 9.94 -3 13 C-4.08644535 8.6542186 -3.90680911 8.05039452 -2.0625 4.25 C-1.68222656 3.45078125 -1.30195313 2.6515625 -0.91015625 1.828125 C-0.60980469 1.22484375 -0.30945313 0.6215625 0 0 Z " fill="#E57E4D" transform="translate(133,96)"/>
<path d="M0 0 C2.31 0 4.62 0 7 0 C7.125 2.875 7.125 2.875 7 6 C6.34 6.66 5.68 7.32 5 8 C4.67 6.68 4.34 5.36 4 4 C2.68 4 1.36 4 0 4 C0 2.68 0 1.36 0 0 Z " fill="#F8F8F8" transform="translate(167,341)"/>
<path d="M0 0 C-1.26700723 0.9841125 -2.5387619 1.96211497 -3.8125 2.9375 C-4.87404297 3.75541016 -4.87404297 3.75541016 -5.95703125 4.58984375 C-8 6 -8 6 -11 7 C-11 6.01 -11 5.02 -11 4 C-9.68 3.34 -8.36 2.68 -7 2 C-7 1.34 -7 0.68 -7 0 C-3.86650268 -1.04449911 -3.01031744 -0.93423645 0 0 Z " fill="#F0992A" transform="translate(214,190)"/>
<path d="M0 0 C2 1 4 2 6 3 C6 5.64 6 8.28 6 11 C4 8 4 8 4 4 C2.35 4.33 0.7 4.66 -1 5 C-0.67 3.35 -0.34 1.7 0 0 Z " fill="#E5E5E5" transform="translate(184,341)"/>
<path d="M0 0 C1.32 0.66 2.64 1.32 4 2 C2.02 4.97 2.02 4.97 0 8 C-1.875 7.6875 -1.875 7.6875 -4 7 C-4.66 6.01 -5.32 5.02 -6 4 C-4.68 4.33 -3.36 4.66 -2 5 C-2 4.34 -2 3.68 -2 3 C-1.01 2.67 -0.02 2.34 1 2 C0.67 1.34 0.34 0.68 0 0 Z " fill="#E22E38" transform="translate(235,98)"/>
<path d="M0 0 C-1.15585285 3.91211733 -2.35534962 6.8745041 -5 10 C-5 8.35 -5 6.7 -5 5 C-5.99 4.67 -6.98 4.34 -8 4 C-2.25 0 -2.25 0 0 0 Z " fill="#E13642" transform="translate(122,52)"/>
<path d="M0 0 C1.99609375 0.015625 1.99609375 0.015625 4.4375 0.25 C5.64212891 0.35054688 5.64212891 0.35054688 6.87109375 0.453125 C9 1 9 1 11 4 C10.32453125 3.90460938 9.6490625 3.80921875 8.953125 3.7109375 C8.06109375 3.60007812 7.1690625 3.48921875 6.25 3.375 C5.36828125 3.25898438 4.4865625 3.14296875 3.578125 3.0234375 C0.77140122 2.99792183 -0.63384866 3.55156156 -3 5 C-1.125 1.125 -1.125 1.125 0 0 Z " fill="#686666" transform="translate(82,331)"/>
<path d="M0 0 C0 0.99 0 1.98 0 3 C-2.64 3 -5.28 3 -8 3 C-8 1.68 -8 0.36 -8 -1 C-3.375 -2.25 -3.375 -2.25 0 0 Z " fill="#DE4951" transform="translate(153,146)"/>
<path d="M0 0 C2.64 0 5.28 0 8 0 C8.66 1.32 9.32 2.64 10 4 C7.03 4 4.06 4 1 4 C0.67 2.68 0.34 1.36 0 0 Z " fill="#F4E0E0" transform="translate(150,119)"/>
<path d="M0 0 C0.33 0 0.66 0 1 0 C1.22331199 1.58129029 1.42804644 3.16521089 1.625 4.75 C1.74101563 5.63171875 1.85703125 6.5134375 1.9765625 7.421875 C2.00207817 10.22859878 1.44843844 11.63384866 0 14 C-0.66 14 -1.32 14 -2 14 C-1.85795259 12.41632253 -1.71119847 10.83306682 -1.5625 9.25 C-1.48128906 8.36828125 -1.40007812 7.4865625 -1.31640625 6.578125 C-1.03761535 4.30649548 -0.61209423 2.20148177 0 0 Z " fill="#EB743B" transform="translate(81,102)"/>
<path d="M0 0 C0.99 0 1.98 0 3 0 C3 0.66 3 1.32 3 2 C3.66 2.33 4.32 2.66 5 3 C2.69 4.65 0.38 6.3 -2 8 C-2.33 6.02 -2.66 4.04 -3 2 C-2.01 1.67 -1.02 1.34 0 1 C0 0.67 0 0.34 0 0 Z " fill="#F2992F" transform="translate(145,67)"/>
<path d="M0 0 C2.45391569 3.68087353 2.22802759 6.44355588 2.125 10.6875 C2.11597656 11.38939453 2.10695312 12.09128906 2.09765625 12.81445312 C2.07413704 14.54311525 2.03826713 16.27160145 2 18 C1.34 18 0.68 18 0 18 C-0.33 16.35 -0.66 14.7 -1 13 C-0.34 13 0.32 13 1 13 C0.67 8.71 0.34 4.42 0 0 Z " fill="#F01820" transform="translate(172,269)"/>
<path d="M0 0 C0.33 0.66 0.66 1.32 1 2 C3.01669827 3.13350534 3.01669827 3.13350534 5 4 C4.01 4.33 3.02 4.66 2 5 C2.33 5.33 2.66 5.66 3 6 C3.04092937 8.33297433 3.04241723 10.66705225 3 13 C2.67 13 2.34 13 2 13 C2 11.02 2 9.04 2 7 C1.01 7 0.02 7 -1 7 C-1.625 5.1875 -1.625 5.1875 -2 3 C-1.34 2.01 -0.68 1.02 0 0 Z " fill="#DE3D46" transform="translate(158,135)"/>
<path d="M0 0 C1.32 0 2.64 0 4 0 C4.33 1.98 4.66 3.96 5 6 C3.68 5.34 2.36 4.68 1 4 C1 4.66 1 5.32 1 6 C1.66 6.33 2.32 6.66 3 7 C1.68 7 0.36 7 -1 7 C-0.67 4.69 -0.34 2.38 0 0 Z " fill="#D8404A" transform="translate(147,137)"/>
<path d="M0 0 C2.62187494 1.04874998 3.79371361 1.64931313 5.25 4.125 C5.4975 4.74375 5.745 5.3625 6 6 C5 7 5 7 2.27734375 7.09765625 C0.62412109 7.08025391 0.62412109 7.08025391 -1.0625 7.0625 C-2.16722656 7.05347656 -3.27195313 7.04445313 -4.41015625 7.03515625 C-5.69212891 7.01775391 -5.69212891 7.01775391 -7 7 C-7 6.67 -7 6.34 -7 6 C-4.03 6 -1.06 6 2 6 C1.34 4.02 0.68 2.04 0 0 Z " fill="#D55A61" transform="translate(159,120)"/>
<path d="M0 0 C0 0.66 0 1.32 0 2 C-1.32 2.33 -2.64 2.66 -4 3 C-4 4.65 -4 6.3 -4 8 C-5.32 8 -6.64 8 -8 8 C-7.63487253 5.2980567 -7.30130763 3.41609148 -5.6875 1.1875 C-4 0 -4 0 0 0 Z " fill="#E12F36" transform="translate(162,100)"/>
<path d="M0 0 C0.33 0.99 0.66 1.98 1 3 C1.66 3.33 2.32 3.66 3 4 C2.34 5.32 1.68 6.64 1 8 C-0.32 7.67 -1.64 7.34 -3 7 C-3.33 5.68 -3.66 4.36 -4 3 C-2.68 2.01 -1.36 1.02 0 0 Z " fill="#F26522" transform="translate(145,81)"/>
<path d="M0 0 C0 2.64 0 5.28 0 8 C-1.98 6.68 -3.96 5.36 -6 4 C-2.17391304 0 -2.17391304 0 0 0 Z " fill="#EEEDED" transform="translate(144,343)"/>
<path d="M0 0 C0 2.64 0 5.28 0 8 C-1.98 6.68 -3.96 5.36 -6 4 C-2.17391304 0 -2.17391304 0 0 0 Z " fill="#EDEDED" transform="translate(92,343)"/>
<path d="M0 0 C1.65 0 3.3 0 5 0 C4.01 3.3 3.02 6.6 2 10 C-0.4294516 6.3558226 -0.16179575 4.28758728 0 0 Z " fill="#EDECED" transform="translate(114,340)"/>
<path d="M0 0 C1.98 0 3.96 0 6 0 C6.33 0.99 6.66 1.98 7 3 C4 5 4 5 1.8125 4.625 C1.214375 4.41875 0.61625 4.2125 0 4 C0 2.68 0 1.36 0 0 Z " fill="#E52631" transform="translate(213,307)"/>
<path d="M0 0 C1.98 0 3.96 0 6 0 C5.34 1.32 4.68 2.64 4 4 C3.67 3.34 3.34 2.68 3 2 C2.01 2 1.02 2 0 2 C0 3.98 0 5.96 0 8 C-0.99 7.67 -1.98 7.34 -3 7 C-2.01 4.69 -1.02 2.38 0 0 Z " fill="#D36870" transform="translate(142,125)"/>
<path d="M0 0 C0.33 0 0.66 0 1 0 C1.125 5.75 1.125 5.75 0 8 C-0.66 8 -1.32 8 -2 8 C-2 9.65 -2 11.3 -2 13 C-2.99 13.33 -3.98 13.66 -5 14 C-3.45730076 9.27934033 -1.92205381 4.58335908 0 0 Z " fill="#E75E43" transform="translate(87,87)"/>
<path d="M0 0 C0.66 1.32 1.32 2.64 2 4 C-3.2734375 7.22265625 -3.2734375 7.22265625 -5 8 C-5.66 7.67 -6.32 7.34 -7 7 C-4.66666667 4.66666667 -2.33333333 2.33333333 0 0 Z " fill="#DF3540" transform="translate(152,91)"/>
<path d="M0 0 C0.66 0.33 1.32 0.66 2 1 C1.01 2.485 1.01 2.485 0 4 C0.66 4 1.32 4 2 4 C2 3.34 2 2.68 2 2 C2.66 2 3.32 2 4 2 C3.67 2.99 3.34 3.98 3 5 C0.4375 6.1875 0.4375 6.1875 -2 7 C-2.33 6.34 -2.66 5.68 -3 5 C-3.66 4.67 -4.32 4.34 -5 4 C-3.35 2.68 -1.7 1.36 0 0 Z " fill="#F8ECD8" transform="translate(156,64)"/>
<path d="M0 0 C0.33 0.66 0.66 1.32 1 2 C2.89533342 2.46523063 2.89533342 2.46523063 5.0625 2.625 C6.361875 2.74875 7.66125 2.8725 9 3 C9 4.32 9 5.64 9 7 C5.51375944 6.3543999 2.87501211 5.07639763 0 3 C0 2.01 0 1.02 0 0 Z " fill="#DE2028" transform="translate(157,116)"/>
<path d="M0 0 C2.3129482 2.3129482 2.49580975 3.47904875 3.125 6.625 C3.29257813 7.44226563 3.46015625 8.25953125 3.6328125 9.1015625 C3.81457031 10.04128906 3.81457031 10.04128906 4 11 C2.35 10.67 0.7 10.34 -1 10 C-0.814375 9.236875 -0.62875 8.47375 -0.4375 7.6875 C0.22819173 4.91032625 0.22819173 4.91032625 -1 2 C-0.67 1.34 -0.34 0.68 0 0 Z " fill="#F8ECE3" transform="translate(201,106)"/>
<path d="M0 0 C1.65 0 3.3 0 5 0 C3.515 3.96 3.515 3.96 2 8 C1.34 8 0.68 8 0 8 C0 5.36 0 2.72 0 0 Z " fill="#F8F5EE" transform="translate(82,88)"/>
<path d="M0 0 C0 2.83967231 -0.40267181 5.23735711 -1 8 C-2.32 8 -3.64 8 -5 8 C-5.33 8.66 -5.66 9.32 -6 10 C-6.66 9.67 -7.32 9.34 -8 9 C-6.85459775 7.68712379 -5.70866567 6.37470979 -4.5625 5.0625 C-3.92441406 4.33160156 -3.28632812 3.60070312 -2.62890625 2.84765625 C-1.77458541 1.87860647 -0.91348825 0.91348825 0 0 Z " fill="#DE3A42" transform="translate(102,66)"/>
<path d="M0 0 C0.66 0 1.32 0 2 0 C0.43358249 4.30764815 -1.68336156 8.06171464 -4 12 C-4.33 10.68 -4.66 9.36 -5 8 C-4.34 8 -3.68 8 -3 8 C-3 6.68 -3 5.36 -3 4 C-2.34 4 -1.68 4 -1 4 C-0.67 2.68 -0.34 1.36 0 0 Z " fill="#EF982B" transform="translate(232,165)"/>
<path d="M0 0 C2.475 0.495 2.475 0.495 5 1 C5 2.32 5 3.64 5 5 C3.35 5 1.7 5 0 5 C0 3.35 0 1.7 0 0 Z " fill="#DF5560" transform="translate(147,131)"/>
<path d="M0 0 C2.64 0.33 5.28 0.66 8 1 C7.67 1.99 7.34 2.98 7 4 C5.35 4 3.7 4 2 4 C1.34 2.68 0.68 1.36 0 0 Z " fill="#EDECED" transform="translate(99,348)"/>
<path d="M0 0 C1.32 0.33 2.64 0.66 4 1 C3 4 3 4 -0.0625 5.6875 C-1.031875 6.120625 -2.00125 6.55375 -3 7 C-2.67 5.68 -2.34 4.36 -2 3 C-1.34 3 -0.68 3 0 3 C0 2.01 0 1.02 0 0 Z " fill="#F9F5EB" transform="translate(184,158)"/>
<path d="M0 0 C2.31 1.98 4.62 3.96 7 6 C6.34 6.66 5.68 7.32 5 8 C5 7.34 5 6.68 5 6 C3.02 5.34 1.04 4.68 -1 4 C-0.67 2.68 -0.34 1.36 0 0 Z " fill="#E43C46" transform="translate(126,150)"/>
<path d="M0 0 C2.97 0.495 2.97 0.495 6 1 C5.01 1.495 5.01 1.495 4 2 C3.59270772 4.32156597 3.25561323 6.6568787 3 9 C1.68 8.67 0.36 8.34 -1 8 C-1 7.01 -1 6.02 -1 5 C-0.01 5 0.98 5 2 5 C1.34 3.35 0.68 1.7 0 0 Z " fill="#EEBABB" transform="translate(163,101)"/>
<path d="M0 0 C0.33 0 0.66 0 1 0 C1.33 1.65 1.66 3.3 2 5 C3.32 4.67 4.64 4.34 6 4 C4.68 5.32 3.36 6.64 2 8 C1.01 7.67 0.02 7.34 -1 7 C-1.04254356 5.00045254 -1.04080783 2.99958364 -1 1 C-0.67 0.67 -0.34 0.34 0 0 Z " fill="#575455" transform="translate(43,340)"/>
<path d="M0 0 C0.66 0.33 1.32 0.66 2 1 C1.34 2.32 0.68 3.64 0 5 C-1.98 5 -3.96 5 -6 5 C-6.33 4.34 -6.66 3.68 -7 3 C-4.69631264 1.93347808 -2.35981813 0.93578995 0 0 Z " fill="#FBF6E9" transform="translate(197,200)"/>
<path d="M0 0 C1.32 0 2.64 0 4 0 C3.67 1.98 3.34 3.96 3 6 C3.66 6.33 4.32 6.66 5 7 C4.34 7.66 3.68 8.32 3 9 C2.01 6.03 1.02 3.06 0 0 Z " fill="#EB6D2E" transform="translate(83,153)"/>
<path d="M0 0 C0.99 0.33 1.98 0.66 3 1 C2.67 1.99 2.34 2.98 2 4 C-0.375 4.625 -0.375 4.625 -3 5 C-3.66 4.34 -4.32 3.68 -5 3 C-2.6875 1.4375 -2.6875 1.4375 0 0 Z " fill="#DB4E53" transform="translate(170,124)"/>
<path d="M0 0 C-0.33 1.32 -0.66 2.64 -1 4 C-2.32 4.33 -3.64 4.66 -5 5 C-5 4.34 -5 3.68 -5 3 C-5.66 3 -6.32 3 -7 3 C-7 2.34 -7 1.68 -7 1 C-4.50935112 0.31292445 -2.62113708 0 0 0 Z " fill="#FBFBF9" transform="translate(178,75)"/>
<path d="M0 0 C3.65316671 1.24976756 4.78065836 1.67098753 7 5 C5.68 5.33 4.36 5.66 3 6 C0 2.25 0 2.25 0 0 Z " fill="#E3262C" transform="translate(71,256)"/>
<path d="M0 0 C0.66 0.99 1.32 1.98 2 3 C1.125 6.6875 1.125 6.6875 0 10 C-0.66 9.67 -1.32 9.34 -2 9 C-2.25 3.375 -2.25 3.375 0 0 Z " fill="#E6262D" transform="translate(131,232)"/>
<path d="M0 0 C0 0.99 0 1.98 0 3 C-2.31 3 -4.62 3 -7 3 C-6.67 2.01 -6.34 1.02 -6 0 C-3.42525708 -0.99667468 -2.51072708 -1.25536354 0 0 Z " fill="#EB1B24" transform="translate(164,102)"/>
<path d="M0 0 C0.66 0.99 1.32 1.98 2 3 C1.34 3 0.68 3 0 3 C0.350625 3.598125 0.70125 4.19625 1.0625 4.8125 C2 7 2 7 1 10 C1 9.34 1 8.68 1 8 C0.34 8 -0.32 8 -1 8 C-1.33 8.99 -1.66 9.98 -2 11 C-3 9 -3 9 -2.44140625 6.8359375 C-2.15136719 6.02382812 -1.86132812 5.21171875 -1.5625 4.375 C-1.27503906 3.55773437 -0.98757812 2.74046875 -0.69140625 1.8984375 C-0.46324219 1.27195312 -0.23507813 0.64546875 0 0 Z " fill="#F7E1DA" transform="translate(116,64)"/>
<path d="M0 0 C1.98 0 3.96 0 6 0 C5.67 1.32 5.34 2.64 5 4 C3.0625 3.6875 3.0625 3.6875 1 3 C0.67 2.01 0.34 1.02 0 0 Z " fill="#DBDADA" transform="translate(180,348)"/>
<path d="M0 0 C3.375 -0.1875 3.375 -0.1875 7 0 C7.66 0.99 8.32 1.98 9 3 C5.7 3 2.4 3 -1 3 C-0.67 2.01 -0.34 1.02 0 0 Z " fill="#5B5859" transform="translate(195,333)"/>
<path d="M0 0 C0.66 0.33 1.32 0.66 2 1 C1.67 2.32 1.34 3.64 1 5 C-0.98 5.33 -2.96 5.66 -5 6 C-3.35 4.02 -1.7 2.04 0 0 Z " fill="#E8753F" transform="translate(196,152)"/>
<path d="M0 0 C0.66 0.33 1.32 0.66 2 1 C1.54625 1.598125 1.0925 2.19625 0.625 2.8125 C-0.63295913 4.50590652 -1.82984724 6.24477086 -3 8 C-3.99 7.67 -4.98 7.34 -6 7 C-4.02 4.69 -2.04 2.38 0 0 Z " fill="#E1343C" transform="translate(109,59)"/>
<path d="M0 0 C1.32 0 2.64 0 4 0 C3.34 3.3 2.68 6.6 2 10 C1.67 10 1.34 10 1 10 C0.67 6.7 0.34 3.4 0 0 Z " fill="#DEDDDD" transform="translate(269,341)"/>
<path d="M0 0 C4.455 0.99 4.455 0.99 9 2 C4.82091936 4.08954032 4.19589427 4.16552619 0 3 C0 2.01 0 1.02 0 0 Z " fill="#E6242C" transform="translate(61,252)"/>
<path d="M0 0 C0 1.65 0 3.3 0 5 C-1.65 4.67 -3.3 4.34 -5 4 C-5 3.01 -5 2.02 -5 1 C-3 0 -3 0 0 0 Z " fill="#E6212E" transform="translate(174,136)"/>
<path d="M0 0 C2.3125 -0.3125 2.3125 -0.3125 5 0 C6.8125 2.5 6.8125 2.5 8 5 C7.34 5 6.68 5 6 5 C6 4.34 6 3.68 6 3 C5.01 3.33 4.02 3.66 3 4 C1.97895449 3.02149805 0.9793879 2.02019573 0 1 C0 0.67 0 0.34 0 0 Z " fill="#ED9C38" transform="translate(149,34)"/>
<path d="M0 0 C0.66 0 1.32 0 2 0 C1.95875 0.94875 1.9175 1.8975 1.875 2.875 C1.65026182 6.10244856 1.65026182 6.10244856 4 8 C0.125 7.125 0.125 7.125 -1 6 C-1.125 3.5 -1.125 3.5 -1 1 C-0.67 0.67 -0.34 0.34 0 0 Z " fill="#3D393A" transform="translate(242,345)"/>
<path d="M0 0 C0.99 0.33 1.98 0.66 3 1 C3 2.98 3 4.96 3 7 C2.01 7 1.02 7 0 7 C0 4.69 0 2.38 0 0 Z " fill="#DADADA" transform="translate(65,343)"/>
<path d="M0 0 C2.97 1.98 2.97 1.98 6 4 C5.01 4.66 4.02 5.32 3 6 C2.67 5.34 2.34 4.68 2 4 C-0.02463255 3.34786708 -0.02463255 3.34786708 -2 3 C-2 2.34 -2 1.68 -2 1 C-1.34 0.67 -0.68 0.34 0 0 Z " fill="#E33039" transform="translate(81,263)"/>
<path d="M0 0 C-0.33 0.66 -0.66 1.32 -1 2 C-4.3 2 -7.6 2 -11 2 C-6.98764085 -0.6749061 -4.6342454 -1.48957888 0 0 Z " fill="#FAEBCF" transform="translate(190,205)"/>
<path d="M0 0 C0.99 1.32 1.98 2.64 3 4 C0.625 4.625 0.625 4.625 -2 5 C-2.66 4.34 -3.32 3.68 -4 3 C-2.68 2.01 -1.36 1.02 0 0 Z " fill="#FAF2E0" transform="translate(216,188)"/>
<path d="M0 0 C0.66 0 1.32 0 2 0 C2 0.66 2 1.32 2 2 C3.32 1.67 4.64 1.34 6 1 C5.34 2.98 4.68 4.96 4 7 C0 2.25 0 2.25 0 0 Z " fill="#E8753E" transform="translate(87,163)"/>
<path d="M0 0 C1.65 0.33 3.3 0.66 5 1 C5.33 1.99 5.66 2.98 6 4 C3.69 3.67 1.38 3.34 -1 3 C-0.67 2.01 -0.34 1.02 0 0 Z " fill="#F4DADB" transform="translate(151,164)"/>
<path d="M0 0 C1.9375 0.3125 1.9375 0.3125 4 1 C4.33 1.99 4.66 2.98 5 4 C2.03 3.505 2.03 3.505 -1 3 C-0.67 2.01 -0.34 1.02 0 0 Z " fill="#E02D35" transform="translate(151,116)"/>
<path d="M0 0 C0.66 0 1.32 0 2 0 C2 1.98 2 3.96 2 6 C1.34 6 0.68 6 0 6 C0 5.34 0 4.68 0 4 C-0.66 4 -1.32 4 -2 4 C-1.34 2.68 -0.68 1.36 0 0 Z " fill="#DDDCDD" transform="translate(61,344)"/>
<path d="M0 0 C-0.33 1.32 -0.66 2.64 -1 4 C-1 3.34 -1 2.68 -1 2 C-3.475 3.485 -3.475 3.485 -6 5 C-6 4.01 -6 3.02 -6 2 C-3 0 -3 0 0 0 Z " fill="#373435" transform="translate(285,343)"/>
<path d="M0 0 C1.98 0 3.96 0 6 0 C6 0.99 6 1.98 6 3 C4.02 3 2.04 3 0 3 C0 2.01 0 1.02 0 0 Z " fill="#F4F4F4" transform="translate(196,335)"/>
<path d="M0 0 C1.98 0 3.96 0 6 0 C6 0.66 6 1.32 6 2 C4.02 2.66 2.04 3.32 0 4 C-0.66 3.34 -1.32 2.68 -2 2 C-1.34 2 -0.68 2 0 2 C0 1.34 0 0.68 0 0 Z " fill="#EC6D34" transform="translate(119,194)"/>
<path d="M0 0 C0.33 0.99 0.66 1.98 1 3 C1.99 3 2.98 3 4 3 C3.67 4.98 3.34 6.96 3 9 C0.87491756 5.81237635 0.4979837 3.73487777 0 0 Z " fill="#EE814E" transform="translate(80,144)"/>
<path d="M0 0 C-0.66 1.98 -1.32 3.96 -2 6 C-3.32 4.68 -4.64 3.36 -6 2 C-2.25 0 -2.25 0 0 0 Z " fill="#FCF1F3" transform="translate(162,128)"/>
<path d="M0 0 C1.43088528 2.86177057 0.59991697 4.93375773 0 8 C-0.33 6.68 -0.66 5.36 -1 4 C-1.99 4 -2.98 4 -4 4 C-3.67 3.01 -3.34 2.02 -3 1 C-2.01 0.67 -1.02 0.34 0 0 Z " fill="#F1A23C" transform="translate(122,108)"/>
<path d="M0 0 C0.33 1.32 0.66 2.64 1 4 C-0.9375 6.75 -0.9375 6.75 -3 9 C-3.66 8.67 -4.32 8.34 -5 8 C-3.35 5.36 -1.7 2.72 0 0 Z " fill="#F6E3E2" transform="translate(252,79)"/>
</svg>
